<svg width="21" height="20" viewBox="0 0 21 20" fill="none" xmlns="http://www.w3.org/2000/svg">
<g clip-path="url(#clip0_995_3148)">
<path d="M20.3785 3.41559C21.1984 2.6347 21.1984 1.36655 20.3785 0.585663C19.5586 -0.195221 18.227 -0.195221 17.4071 0.585663L10.5 7.17008L3.58637 0.59191C2.76644 -0.188974 1.43487 -0.188974 0.614946 0.59191C-0.204982 1.37279 -0.204982 2.64095 0.614946 3.42183L7.52858 10L0.621506 16.5844C-0.198422 17.3653 -0.198422 18.6335 0.621506 19.4143C1.44143 20.1952 2.773 20.1952 3.59292 19.4143L10.5 12.8299L17.4136 19.4081C18.2336 20.189 19.5651 20.189 20.3851 19.4081C21.205 18.6272 21.205 17.359 20.3851 16.5782L13.4714 10L20.3785 3.41559Z" fill="white"/>
</g>
<defs>
<clipPath id="clip0_995_3148">
<rect width="21" height="20" fill="white"/>
</clipPath>
</defs>
</svg>
