<svg width="18" height="18" viewBox="0 0 18 18" fill="none" xmlns="http://www.w3.org/2000/svg">
<path d="M9.65625 4.01953C10.0125 3.78711 10.25 3.36543 10.25 2.89062C10.25 2.15684 9.69063 1.5625 9 1.5625C8.30937 1.5625 7.75 2.15684 7.75 2.89062C7.75 3.36875 7.9875 3.78711 8.34375 4.01953L6.55312 7.82461C6.26875 8.42891 5.53125 8.60156 5.03438 8.17988L2.25 5.8125C2.40625 5.59004 2.5 5.31445 2.5 5.01562C2.5 4.28184 1.94062 3.6875 1.25 3.6875C0.559375 3.6875 0 4.28184 0 5.01562C0 5.74941 0.559375 6.34375 1.25 6.34375C1.25625 6.34375 1.26562 6.34375 1.27188 6.34375L2.7 14.691C2.87188 15.7004 3.7 16.4375 4.66875 16.4375H13.3313C14.2969 16.4375 15.125 15.7037 15.3 14.691L16.7281 6.34375C16.7344 6.34375 16.7437 6.34375 16.75 6.34375C17.4406 6.34375 18 5.74941 18 5.01562C18 4.28184 17.4406 3.6875 16.75 3.6875C16.0594 3.6875 15.5 4.28184 15.5 5.01562C15.5 5.31445 15.5938 5.59004 15.75 5.8125L12.9656 8.17988C12.4688 8.60156 11.7312 8.42891 11.4469 7.82461L9.65625 4.01953Z" fill="#FFC107"/>
</svg>
