<svg width="93" height="17" viewBox="0 0 93 17" fill="none" xmlns="http://www.w3.org/2000/svg">
<path d="M0 6.57127C0 5.90633 0.113971 5.2805 0.379902 4.69378C0.607843 4.10707 0.949755 3.59858 1.36765 3.16833C1.78554 2.73807 2.27941 2.38604 2.84927 2.15135C3.41912 1.91666 4.02696 1.76021 4.6728 1.76021C5.4326 1.76021 6.11642 1.95578 6.80025 2.30781C7.44608 2.65983 8.01593 3.12921 8.43383 3.71592V6.10352e-05H9.38358V6.53216C9.38358 7.1971 9.26961 7.86204 9.00368 8.40965C8.77574 8.99636 8.43382 9.50484 8.01593 9.9351C7.59804 10.3654 7.10417 10.7174 6.53432 10.9521C5.96446 11.1868 5.35662 11.3432 4.71079 11.3432C4.06495 11.3432 3.41912 11.2259 2.88726 10.9521C2.3174 10.7174 1.82353 10.3654 1.40564 9.9351C0.987745 9.50484 0.645834 8.99636 0.417892 8.40965C0.151961 7.86204 0 7.23622 0 6.57127ZM0.949755 6.57127C0.949755 7.07976 1.06373 7.58825 1.25368 8.05762C1.44363 8.52699 1.70956 8.91813 2.05147 9.27016C2.39338 9.62219 2.77329 9.89599 3.22917 10.0916C3.68505 10.2871 4.17892 10.4045 4.6728 10.4045C5.16667 10.4045 5.66054 10.2871 6.11642 10.0916C6.5723 9.89599 6.95221 9.62219 7.29412 9.27016C7.63603 8.91813 7.90196 8.52699 8.09191 8.05762C8.28186 7.58825 8.39583 7.07976 8.39583 6.57127C8.39583 6.06279 8.28186 5.5543 8.09191 5.08493C7.90196 4.61555 7.63603 4.22441 7.29412 3.87238C6.95221 3.52035 6.5723 3.24655 6.11642 3.05098C5.66054 2.85541 5.16667 2.73807 4.6728 2.73807C4.17892 2.73807 3.68505 2.85541 3.22917 3.05098C2.77329 3.24655 2.39338 3.52035 2.05147 3.87238C1.70956 4.22441 1.44363 4.61555 1.25368 5.08493C1.06373 5.5543 0.949755 6.02367 0.949755 6.57127Z" fill="#CCCCCC"/>
<path d="M15.1581 1.76013C15.8039 1.76013 16.3738 1.87747 16.9436 2.15128C17.5135 2.38596 18.0074 2.73799 18.4252 3.16825C18.8431 3.59851 19.185 4.10699 19.451 4.69371C19.7169 5.28042 19.8309 5.90625 19.8309 6.5712H18.8811C18.8811 6.06271 18.7672 5.55422 18.5772 5.08485C18.3873 4.61548 18.1213 4.22433 17.7794 3.8723C17.4375 3.52027 17.0576 3.24648 16.6017 3.05091C16.1458 2.85533 15.652 2.73799 15.1581 2.73799C14.6642 2.73799 14.1703 2.85533 13.7145 3.05091C13.2586 3.24648 12.8787 3.52027 12.5368 3.8723C12.1949 4.22433 11.9289 4.61548 11.739 5.08485C11.549 5.55422 11.435 6.06271 11.435 6.5712V11.3823H10.4853V6.5712C10.4853 5.90625 10.5993 5.28042 10.8652 4.69371C11.0931 4.10699 11.435 3.59851 11.8529 3.16825C12.2708 2.73799 12.7647 2.38596 13.3346 2.15128C13.8664 1.87747 14.4743 1.76013 15.1581 1.76013Z" fill="#CCCCCC"/>
<path d="M25.6054 10.4044C26.4032 10.4044 27.087 10.1697 27.7328 9.73945C28.3407 9.30919 28.7966 8.72248 29.0625 7.9793H30.0882C29.9363 8.44868 29.7083 8.91805 29.4044 9.30919C29.1005 9.70034 28.7586 10.0524 28.3787 10.3653C27.9988 10.6782 27.5429 10.9129 27.087 11.0693C26.6311 11.2258 26.1372 11.3431 25.6054 11.3431C24.9595 11.3431 24.3137 11.2258 23.7819 10.952C23.212 10.7173 22.7181 10.3653 22.3002 9.93502C21.8823 9.50476 21.5404 8.99628 21.3125 8.40956C21.0845 7.82285 20.9326 7.19702 20.9326 6.53207C20.9326 5.86713 21.0466 5.2413 21.3125 4.65458C21.5404 4.06787 21.8823 3.55938 22.3002 3.12913C22.7181 2.69887 23.212 2.34684 23.7819 2.11215C24.3517 1.87747 24.9595 1.72101 25.6054 1.72101C26.2512 1.72101 26.8591 1.83835 27.4289 2.11215C27.9988 2.34684 28.4926 2.69887 28.9105 3.12913C29.3284 3.55938 29.6703 4.06787 29.8983 4.65458C30.1262 5.2413 30.2782 5.86713 30.2782 6.53207V7.00144H28.6066H21.8823C21.9583 7.47082 22.1103 7.94019 22.3382 8.33134C22.5662 8.72248 22.8321 9.11362 23.174 9.38742C23.5159 9.70034 23.8958 9.93502 24.3137 10.0915C24.6936 10.3262 25.1115 10.4044 25.6054 10.4044ZM25.6054 2.69887C25.1495 2.69887 24.6936 2.7771 24.2757 2.97267C23.8578 3.12913 23.4779 3.36381 23.136 3.67673C22.7941 3.98964 22.5282 4.34167 22.3002 4.73282C22.0723 5.16308 21.9203 5.59333 21.8443 6.0627H29.3284C29.2524 5.59333 29.1005 5.12396 28.8725 4.73282C28.6446 4.30256 28.3787 3.95053 28.0368 3.67673C27.6948 3.36381 27.3149 3.12913 26.897 2.97267C26.5171 2.81621 26.0613 2.69887 25.6054 2.69887Z" fill="#CCCCCC"/>
<path d="M36.0527 1.76013C36.6986 1.76013 37.3064 1.87747 37.8763 2.15128C38.4461 2.38596 38.94 2.73799 39.3579 3.16825C39.7758 3.59851 40.1177 4.10699 40.3456 4.69371C40.5736 5.28042 40.7255 5.90625 40.7255 6.5712V11.3823H39.7758V9.46566C39.3579 10.0524 38.826 10.5217 38.1422 10.8738C37.4963 11.2258 36.7745 11.4214 36.0147 11.4214C35.3689 11.4214 34.7231 11.304 34.1912 11.0302C33.6213 10.7955 33.1275 10.4435 32.7096 10.0133C32.2917 9.583 31.9498 9.07451 31.7218 8.4878C31.4939 7.90108 31.3419 7.27525 31.3419 6.61031C31.3419 5.94536 31.4559 5.31954 31.7218 4.73282C31.9498 4.14611 32.2917 3.63762 32.7096 3.20736C33.1275 2.7771 33.6213 2.42508 34.1912 2.19039C34.799 1.87748 35.4069 1.76013 36.0527 1.76013ZM36.0527 10.4044C36.5466 10.4044 37.0405 10.2871 37.4963 10.0915C37.9522 9.89592 38.3321 9.62211 38.674 9.27009C39.016 8.91806 39.2819 8.52692 39.4718 8.05754C39.6618 7.58817 39.7758 7.07968 39.7758 6.5712C39.7758 6.06271 39.6618 5.55422 39.4718 5.08485C39.2819 4.61548 39.016 4.22433 38.674 3.8723C38.3321 3.52028 37.9522 3.24648 37.4963 3.05091C37.0405 2.85533 36.5466 2.73799 36.0527 2.73799C35.5588 2.73799 35.065 2.85533 34.6091 3.05091C34.1532 3.24648 33.7733 3.52028 33.4314 3.8723C33.0895 4.22433 32.8236 4.61548 32.6336 5.08485C32.4437 5.55422 32.3297 6.06271 32.3297 6.5712C32.3297 7.07968 32.4437 7.58817 32.6336 8.05754C32.8236 8.52692 33.0895 8.91806 33.4314 9.27009C33.7733 9.62211 34.1532 9.89592 34.6091 10.0915C35.065 10.2871 35.5588 10.4044 36.0527 10.4044Z" fill="#CCCCCC"/>
<path d="M71.1556 0.97792V6.10352e-05H72.1054V0.97792H71.1556ZM71.1556 11.3823V1.76021H72.1054V11.3823H71.1556Z" fill="#CCCCCC"/>
<path d="M82.5527 6.64943V11.3431C82.5527 12.0081 82.4387 12.5948 82.1728 13.1815C81.9449 13.7682 81.603 14.2767 81.1851 14.707C80.7672 15.1372 80.2733 15.4893 79.7034 15.7631C79.1336 16.0369 78.5257 16.1542 77.8799 16.1542C77.2341 16.1542 76.6642 16.0369 76.0944 15.7631C75.5245 15.4893 75.0306 15.1764 74.6128 14.707C74.1949 14.2767 73.8529 13.7682 73.587 13.1815C73.3211 12.5948 73.2071 12.0081 73.2071 11.3431H74.1569C74.1569 11.8516 74.2708 12.3601 74.4608 12.8295C74.6507 13.2989 74.9167 13.69 75.2586 14.042C75.6005 14.3941 75.9804 14.6679 76.4363 14.8634C76.8922 15.059 77.386 15.1764 77.8799 15.1764C78.4118 15.1764 78.9057 15.059 79.3615 14.8634C79.8174 14.6679 80.1973 14.3941 80.5392 14.042C80.8811 13.69 81.1471 13.2989 81.337 12.8295C81.527 12.3601 81.603 11.8516 81.603 11.3431V9.42655C81.1851 10.0133 80.6532 10.4826 80.0074 10.8347C79.3615 11.1867 78.6397 11.3823 77.8419 11.3823C77.1961 11.3823 76.6262 11.2649 76.0564 10.9911C75.4865 10.7564 74.9927 10.4044 74.5748 9.97414C74.1569 9.54389 73.815 9.0354 73.549 8.44869C73.2831 7.86197 73.1691 7.23614 73.1691 6.5712C73.1691 5.90625 73.2831 5.28042 73.549 4.69371C73.815 4.10699 74.1189 3.59851 74.5748 3.16825C74.9927 2.73799 75.4865 2.38596 76.0564 2.15128C76.6262 1.91659 77.1961 1.76013 77.8419 1.76013C78.4878 1.76013 79.0956 1.87747 79.6654 2.15128C80.2353 2.38596 80.7292 2.73799 81.1471 3.16825C81.565 3.59851 81.9069 4.10699 82.1348 4.69371C82.3628 5.28042 82.5147 5.90625 82.5147 6.5712V6.64943H82.5527ZM77.8799 10.4044C78.4118 10.4044 78.9057 10.2871 79.3615 10.0915C79.8174 9.89592 80.1973 9.62211 80.5392 9.27009C80.8811 8.91806 81.1471 8.52692 81.337 8.05754C81.527 7.58817 81.603 7.07968 81.603 6.5712C81.603 6.06271 81.527 5.55422 81.337 5.08485C81.1471 4.61548 80.8811 4.22433 80.5392 3.8723C80.1973 3.52028 79.8174 3.24648 79.3615 3.05091C78.9057 2.85533 78.4118 2.73799 77.8799 2.73799C77.386 2.73799 76.8922 2.85533 76.4363 3.05091C75.9804 3.24648 75.6005 3.52028 75.2586 3.8723C74.9167 4.22433 74.6507 4.61548 74.4608 5.08485C74.2708 5.55422 74.1569 6.06271 74.1569 6.5712C74.1569 7.07968 74.2708 7.58817 74.4608 8.05754C74.6507 8.52692 74.9167 8.91806 75.2586 9.27009C75.6005 9.62211 75.9804 9.89592 76.4363 10.0915C76.8922 10.2871 77.386 10.4044 77.8799 10.4044Z" fill="#CCCCCC"/>
<path d="M88.3272 1.76013C88.9731 1.76013 89.5429 1.87747 90.1128 2.15128C90.6826 2.42508 91.1765 2.7771 91.5944 3.20736C92.0123 3.63762 92.3542 4.14611 92.6201 4.73282C92.8861 5.31954 93 5.90625 93 6.5712V11.3823H92.0503V6.5712C92.0503 6.06271 91.9363 5.55422 91.7464 5.08485C91.5564 4.61548 91.2905 4.22433 90.9486 3.8723C90.6067 3.52027 90.2268 3.24648 89.7709 3.05091C89.315 2.85533 88.8211 2.73799 88.3272 2.73799C87.8334 2.73799 87.3395 2.85533 86.8836 3.05091C86.4277 3.24648 86.0478 3.52027 85.7059 3.8723C85.364 4.22433 85.0981 4.61548 84.9081 5.08485C84.7182 5.55422 84.6042 6.06271 84.6042 6.5712V11.3823H83.6924V6.5712C83.6924 5.90625 83.8064 5.31954 84.0723 4.73282C84.3003 4.14611 84.6422 3.63762 85.0601 3.20736C85.478 2.7771 85.9719 2.42508 86.5417 2.15128C87.0736 1.87747 87.6814 1.76013 88.3272 1.76013Z" fill="#CCCCCC"/>
<path d="M59.9865 13.4945C61.1195 13.4945 62.038 12.5488 62.038 11.3823C62.038 10.2158 61.1195 9.27014 59.9865 9.27014C58.8535 9.27014 57.9351 10.2158 57.9351 11.3823C57.9351 12.5488 58.8535 13.4945 59.9865 13.4945Z" fill="#009EE3"/>
<path d="M58.315 5.08485C58.5049 5.55422 58.5809 6.06271 58.5809 6.5712V9.07451C58.9608 8.91806 59.3407 8.80071 59.7206 8.7616V6.5712C59.7206 5.90625 59.5307 5.28042 59.3027 4.69371C59.0748 4.10699 58.6949 3.59851 58.277 3.16825C57.8591 2.73799 57.3652 2.38596 56.7954 2.15128C56.2255 1.91659 55.6177 1.76013 54.9718 1.76013C54.5159 1.76013 54.0981 1.83836 53.6802 1.9557C53.2623 2.07305 52.8444 2.26862 52.5025 2.54242C52.1226 2.7771 51.8186 3.09002 51.5147 3.40293C51.2108 3.71585 50.9829 4.06788 50.7929 4.45902C50.603 4.06788 50.375 3.71585 50.0711 3.40293C49.7672 3.09002 49.4632 2.7771 49.0833 2.54242C48.7034 2.30773 48.3235 2.11216 47.9057 1.9557C47.4878 1.83836 47.0319 1.76013 46.576 1.76013C45.9302 1.76013 45.3603 1.87747 44.7905 2.15128C44.2206 2.38596 43.7267 2.73799 43.3088 3.16825C42.8909 3.59851 42.549 4.10699 42.2831 4.69371C42.0172 5.28042 41.9032 5.90625 41.9032 6.5712V11.3431H43.0429V6.5712C43.0429 6.06271 43.0429 5.55422 43.2329 5.08485C43.4228 4.61548 43.6507 4.22433 43.9927 3.8723C44.3346 3.52027 44.7145 3.24648 45.1704 3.05091C45.6262 2.85533 46.0821 2.73799 46.614 2.73799C47.1079 2.73799 47.6017 2.85533 48.0576 3.05091C48.5135 3.24648 48.8934 3.52027 49.2353 3.8723C49.5772 4.22433 49.8052 4.61548 49.9951 5.08485C50.1851 5.55422 50.261 6.06271 50.261 6.5712V11.3431H51.4007V6.5712C51.4007 6.06271 51.4387 5.55422 51.6287 5.08485C51.8186 4.61548 52.0466 4.22433 52.3885 3.8723C52.7304 3.52027 53.1103 3.24648 53.5662 3.05091C54.0221 2.85533 54.478 2.73799 55.0098 2.73799C55.5037 2.73799 55.9976 2.85533 56.4534 3.05091C56.9093 3.24648 57.2892 3.52027 57.5932 3.8723C57.8591 4.18522 58.087 4.61548 58.315 5.08485Z" fill="#CCCCCC"/>
<path d="M63.3297 2.73807H69.94V1.56464H63.3297C62.9498 1.56464 62.6079 1.72109 62.3039 1.87755C62 1.9949 61.6961 2.22958 61.4681 2.46427C61.2402 2.69895 61.0503 3.01187 60.8983 3.32478C60.7843 3.6377 60.7083 3.98973 60.7083 4.34176C60.7083 4.69379 60.7843 5.04581 60.8983 5.35873C61.0123 5.67164 61.2022 5.98455 61.4681 6.21924C61.6961 6.45393 62 6.6495 62.3039 6.80596C62.6079 6.96241 62.9498 7.04064 63.3297 7.04064H65.3811H67.5466C67.9645 7.04064 68.3444 7.1971 68.6483 7.51002C68.9522 7.82293 69.1422 8.21407 69.1422 8.68345C69.1422 9.15282 68.9902 9.66131 68.6483 9.97422C68.3444 10.2871 67.9645 10.5609 67.5466 10.5609H62.4179C62.5319 10.5609 62.6079 10.9521 62.6079 11.3432H67.5466C67.8885 11.3432 68.2304 11.265 68.5343 11.1477C68.8382 10.9912 69.1042 10.7956 69.3321 10.5609C69.5601 10.3262 69.75 10.0525 69.864 9.70042C69.978 9.38751 70.0539 9.03547 70.0539 8.68345C70.0539 8.33142 69.978 7.97939 69.864 7.66648C69.75 7.35356 69.5601 7.07976 69.3321 6.84507C69.1042 6.61039 68.8382 6.53216 68.5343 6.3757C68.2304 6.25836 67.8885 6.25836 67.5466 6.25836H65.3811H63.3297C62.8738 6.25836 62.4559 5.98456 62.152 5.67164C61.8101 5.31961 61.6581 4.88935 61.6581 4.38087C61.6581 3.87238 61.8101 3.48124 62.152 3.20744C62.4559 2.89452 62.8358 2.73807 63.3297 2.73807Z" fill="#CCCCCC"/>
</svg>
