<svg width="23" height="24" viewBox="0 0 23 24" fill="none" xmlns="http://www.w3.org/2000/svg">
<g clip-path="url(#clip0_150_287)">
<path d="M19.8105 2.76091L20.3541 3.3281C20.7764 3.76873 20.7764 4.48123 20.3541 4.91716L19.0469 6.28591L16.976 4.12498L18.2832 2.76091C18.7055 2.32029 19.3883 2.32029 19.8061 2.76091H19.8105ZM9.42461 12.0094L15.4531 5.71404L17.524 7.87497L11.491 14.1656C11.3607 14.3015 11.199 14.4 11.0238 14.4515L8.3959 15.2343L9.14609 12.4922C9.19551 12.3094 9.28984 12.1406 9.42012 12.0047L9.42461 12.0094ZM16.7604 1.17185L7.89727 10.4156C7.50644 10.8234 7.22344 11.325 7.07519 11.8734L5.79043 16.5609C5.68262 16.9547 5.78594 17.3765 6.06445 17.6672C6.34297 17.9578 6.74727 18.0656 7.12461 17.9531L11.6168 16.6125C12.1469 16.4531 12.6275 16.1578 13.0139 15.7547L21.877 6.51091C23.1393 5.19372 23.1393 3.05623 21.877 1.73904L21.3334 1.17185C20.0711 -0.145337 18.0227 -0.145337 16.7604 1.17185ZM3.95312 2.99998C1.76992 2.99998 0 4.84685 0 7.12497V19.875C0 22.1531 1.76992 24 3.95312 24H16.1719C18.3551 24 20.125 22.1531 20.125 19.875V14.625C20.125 14.0015 19.6443 13.5 19.0469 13.5C18.4494 13.5 17.9687 14.0015 17.9687 14.625V19.875C17.9687 20.9109 17.1646 21.75 16.1719 21.75H3.95312C2.96035 21.75 2.15625 20.9109 2.15625 19.875V7.12497C2.15625 6.08904 2.96035 5.24998 3.95312 5.24998H8.98437C9.58184 5.24998 10.0625 4.74841 10.0625 4.12498C10.0625 3.50154 9.58184 2.99998 8.98437 2.99998H3.95312Z" fill="#009EE3"/>
</g>
<defs>
<clipPath id="clip0_150_287">
<rect width="23" height="24" fill="white"/>
</clipPath>
</defs>
</svg>
