<svg width="26" height="20" viewBox="0 0 26 20" fill="none" xmlns="http://www.w3.org/2000/svg">
<path d="M13 0C9.35373 0 6.434 1.64286 4.30851 3.59821C2.19656 5.54018 0.784084 7.85714 0.11169 9.45089C-0.0372299 9.80357 -0.0372299 10.1964 0.11169 10.5491C0.784084 12.1429 2.19656 14.4643 4.30851 16.4018C6.434 18.3527 9.35373 20 13 20C16.6463 20 19.566 18.3571 21.6915 16.4018C23.8034 14.4598 25.2159 12.1429 25.8883 10.5491C26.0372 10.1964 26.0372 9.80357 25.8883 9.45089C25.2159 7.85714 23.8034 5.53571 21.6915 3.59821C19.566 1.64732 16.6463 0 13 0ZM6.50169 10C6.50169 6.45089 9.41239 3.57143 13 3.57143C16.5876 3.57143 19.4983 6.45089 19.4983 10C19.4983 13.5491 16.5876 16.4286 13 16.4286C9.41239 16.4286 6.50169 13.5491 6.50169 10ZM13 7.14286C13 8.71875 11.7049 10 10.1119 10C9.5929 10 9.10553 9.86607 8.68133 9.625C8.63621 10.1116 8.67682 10.6116 8.8122 11.1071C9.43044 13.3929 11.8086 14.75 14.1192 14.1384C16.4297 13.5268 17.8015 11.1741 17.1833 8.88839C16.6327 6.84822 14.6787 5.54911 12.6209 5.72768C12.8601 6.14286 13 6.625 13 7.14286Z" fill="#009EE3"/>
</svg>
