<?xml version="1.0" encoding="UTF-8"?>
<!-- Generator: Adobe Illustrator 27.1.1, SVG Export Plug-In . SVG Version: 6.00 Build 0)  -->
<svg xmlns="http://www.w3.org/2000/svg" xmlns:xlink="http://www.w3.org/1999/xlink" version="1.1" id="Capa_1" x="0px" y="0px" viewBox="0 0 32 32" style="enable-background:new 0 0 32 32;" xml:space="preserve">
<style type="text/css">
	.st0{fill:url(#SVGID_1_);}
	.st1{fill:#009EE3;}
	.st2{fill:#FFFFFF;}
</style>
<linearGradient id="SVGID_1_" gradientUnits="userSpaceOnUse" x1="0.4" y1="16" x2="31.659" y2="16" gradientTransform="matrix(1 0 0 -1 0 32)">
	<stop offset="0" style="stop-color:#932771"></stop>
	<stop offset="1" style="stop-color:#662D91"></stop>
</linearGradient>
<circle class="st0" cx="16" cy="16" r="15.6"></circle>
<g>
	<g>
		<circle class="st1" cx="15.1" cy="21" r="2.2"></circle>
		<path class="st2" d="M12.2,20.9c0-0.1,0-0.3,0-0.4c-0.3,0.2-0.5,0.3-0.9,0.5c-0.6,0.3-1.2,0.4-1.8,0.4S8.3,21.3,7.7,21    s-1.1-0.6-1.5-1s-0.8-0.9-1-1.5c-0.3-0.6-0.4-1.2-0.4-1.8c0-0.6,0.1-1.2,0.4-1.8s0.6-1.1,1-1.5s0.9-0.8,1.5-1    C8.3,12.2,8.9,12,9.5,12s1.2,0.1,1.8,0.4c0.6,0.3,1.1,0.6,1.5,1s0.8,0.9,1,1.5c0.3,0.6,0.4,1.2,0.4,1.8c0,0.5-0.1,0.9-0.2,1.4    c0.4-0.2,0.8-0.3,1.3-0.3c0.1-0.3,0.1-0.7,0.1-1.1v-8h-1.2v4.5c-0.5-0.7-1.2-1.3-2-1.7s-1.7-0.6-2.7-0.6c-0.8,0-1.6,0.2-2.3,0.5    s-1.3,0.7-1.9,1.2c-0.5,0.5-0.9,1.1-1.2,1.8s-0.5,1.5-0.5,2.3c0,0.8,0.2,1.6,0.5,2.3c0.3,0.7,0.7,1.3,1.2,1.9    c0.5,0.5,1.1,0.9,1.9,1.2c0.7,0.3,1.5,0.5,2.3,0.5c0.8,0,1.6-0.2,2.3-0.5c0.2-0.1,0.3-0.2,0.5-0.2C12.2,21.6,12.2,21.3,12.2,20.9z    "></path>
		<path class="st2" d="M19.9,12.1h8.5v-1.2h-8.5c-0.5,0-0.9,0.1-1.3,0.3s-0.7,0.4-1,0.7s-0.5,0.6-0.7,1s-0.2,0.8-0.2,1.2    s0.1,0.9,0.2,1.3s0.4,0.7,0.7,1c0.3,0.3,0.6,0.5,1,0.7s0.8,0.3,1.3,0.3h2.6h2.7c0.5,0,1,0.2,1.4,0.5c0.4,0.4,0.6,0.8,0.6,1.4    s-0.2,1.1-0.6,1.5s-0.9,0.6-1.4,0.6h-7c-0.1,0.5-0.2,0.8-0.4,1.2h7.4c0.4,0,0.8-0.1,1.2-0.3c0.4-0.2,0.7-0.4,1-0.7s0.5-0.7,0.7-1    c0.2-0.4,0.2-0.8,0.2-1.3c0-0.4-0.1-0.8-0.2-1.2c-0.2-0.4-0.4-0.7-0.7-1s-0.6-0.5-1-0.7s-0.8-0.3-1.2-0.3h-2.7h-2.6    c-0.6,0-1.1-0.2-1.5-0.6c-0.4-0.4-0.6-0.9-0.6-1.5s0.2-1.1,0.6-1.4C18.8,12.2,19.3,12.1,19.9,12.1z"></path>
	</g>
</g>
</svg>
