<svg width="28" height="28" viewBox="0 0 28 28" fill="none" xmlns="http://www.w3.org/2000/svg">
  <circle cx="14" cy="14" r="14" fill="#009EE3"/>
  <path d="M18.5 12.5h-0.75v-1.75C17.75 8.57 16.18 7 14.25 7S10.75 8.57 10.75 10.75V12.5H10c-.69 0-1.25.56-1.25 1.25v5.5c0 .69.56 1.25 1.25 1.25h8.5c.69 0 1.25-.56 1.25-1.25v-5.5c0-.69-.56-1.25-1.25-1.25zm-3.12 4.88c-.07.62-.62 1.1-1.26 1.06-.68-.04-1.19-.63-1.19-1.31 0-.06.01-.13.02-.19A1.25 1.25 0 0 1 14.25 16c.69 0 1.25.56 1.25 1.25 0 .04-.04.1-.12.13zm1.62-4.88h-3.5v-1.75c0-.97.78-1.75 1.75-1.75s1.75.78 1.75 1.75V12.5z" fill="white"/>
</svg>
