<svg width="2018" height="455" viewBox="0 0 2018 455" fill="none" xmlns="http://www.w3.org/2000/svg">
<rect x="735" y="23" width="64" height="270" rx="32" fill="white"/>
<rect x="522" y="84" width="63" height="277" rx="31.5" transform="rotate(-90 522 84)" fill="white"/>
<rect x="891" y="133" width="112" height="347" rx="56" transform="rotate(-90 891 133)" fill="white"/>
<rect x="1672" y="133" width="112" height="346" rx="56" transform="rotate(-90 1672 133)" fill="white"/>
<rect x="1282" y="133" width="112" height="347" rx="56" transform="rotate(-90 1282 133)" fill="white"/>
<rect x="1786" y="52" width="114" height="383" rx="57" fill="white"/>
<rect x="891" y="435" width="113" height="347" rx="56.5" transform="rotate(-90 891 435)" fill="white"/>
<rect x="1282" y="435" width="113" height="347" rx="56.5" transform="rotate(-90 1282 435)" fill="white"/>
<rect x="1003" y="435" width="112" height="414" rx="56" transform="rotate(180 1003 435)" fill="white"/>
<rect x="522" y="293" width="65" height="277" rx="32.5" transform="rotate(-90 522 293)" fill="white"/>
<rect x="586" y="147" width="64" height="126" rx="32" transform="rotate(180 586 147)" fill="white"/>
<rect x="615" y="112" width="90" height="87" rx="20" fill="white"/>
<rect x="1651.06" y="385.155" width="112.812" height="487.21" rx="56.4059" transform="rotate(142.128 1651.06 385.155)" fill="white"/>
<rect x="524" y="380" width="54" height="55" rx="14" fill="white"/>
<rect x="593" y="380" width="53" height="55" rx="14" fill="white"/>
<rect x="524" y="314" width="122" height="53" rx="14" fill="white"/>
<rect x="1052" y="188" width="154" height="75" rx="14" fill="white"/>
<rect x="593" y="314" width="53" height="53" rx="14" fill="white"/>
<rect x="729" y="380" width="53" height="55" rx="14" fill="white"/>
<rect x="795" y="380" width="55" height="55" rx="14" fill="white"/>
<rect x="729" y="314" width="53" height="121" rx="14" fill="white"/>
<rect x="660" y="314" width="56" height="53" rx="14" fill="white"/>
<path d="M434.504 439C460.179 439 481 418.181 481 392.5C481 366.819 460.179 346 434.504 346C408.821 346 388 366.819 388 392.5C388 418.181 408.821 439 434.504 439Z" fill="#009EE3"/>
<path d="M231.949 272.154H354V254H231.949C224.769 254 219.026 255.513 213.282 258.538C207.538 261.564 203.231 264.59 198.923 269.128C194.615 273.667 191.744 278.205 188.872 284.256C186 290.308 186 296.359 186 302.41C186 308.462 187.436 316.026 188.872 322.077C190.308 328.128 194.615 332.667 198.923 337.205C203.231 341.744 207.538 344.769 213.282 347.795C219.026 350.821 224.769 352.333 231.949 352.333H269.282H308.051C315.231 352.333 322.41 355.359 328.154 359.897C333.897 365.949 336.769 372 336.769 381.077C336.769 390.154 333.897 397.718 328.154 403.769C322.41 409.821 315.231 412.846 308.051 412.846L186 412.846C186 421.845 186 424.897 186 431L308.051 431C313.795 431 319.538 429.487 325.282 426.462C331.026 423.436 335.333 420.41 339.641 415.872C343.949 411.333 346.821 405.282 349.692 400.744C352.564 394.692 352.564 388.641 352.564 381.077C352.564 375.026 351.128 368.974 349.692 362.923C346.821 356.872 343.949 352.333 339.641 347.795C335.333 343.256 331.026 340.231 325.282 337.205C319.538 334.179 313.795 332.667 308.051 332.667H269.282H231.949C223.333 332.667 216.154 329.641 210.41 323.59C204.667 317.538 201.795 309.974 201.795 300.897C201.795 291.821 204.667 284.256 210.41 279.718C216.154 273.667 223.333 272.154 231.949 272.154Z" fill="white"/>
<path d="M0 345.6C0 333.7 2.05265 322.5 6.84209 312C10.9474 301.5 17.1052 292.4 24.6315 284.7C32.1578 277 41.0526 270.7 51.3157 266.5C61.5791 262.3 72.5265 259.5 84.1576 259.5C97.8417 259.5 110.158 263 122.474 269.3C134.105 275.6 144.369 284 151.894 294.5V228H169V344.9C169 356.8 166.947 368.7 162.158 378.5C158.053 389 151.894 398.1 144.368 405.8C136.842 413.5 127.947 419.8 117.684 424C107.421 428.2 96.4736 431 84.8419 431C73.2102 431 61.5791 428.9 51.9999 424C41.7368 419.8 32.8421 413.5 25.3158 405.8C17.7895 398.1 11.6316 389 7.52629 378.5C2.73686 368.7 0 357.5 0 345.6ZM17.1053 345.6C17.1053 354.7 19.1579 363.8 22.5789 372.2C26 380.6 30.7894 387.6 36.9473 393.9C43.1052 400.2 49.9473 405.1 58.1581 408.6C66.3682 412.1 75.2632 414.2 84.1576 414.2C93.0526 414.2 101.947 412.1 110.158 408.6C118.368 405.1 125.21 400.2 131.368 393.9C137.526 387.6 142.316 380.6 145.737 372.2C149.158 363.8 151.211 354.7 151.211 345.6C151.211 336.5 149.158 327.4 145.737 319C142.316 310.6 137.526 303.6 131.368 297.3C125.21 291 118.368 286.1 110.158 282.6C101.947 279.1 93.0526 277 84.1576 277C75.2632 277 66.3682 279.1 58.1581 282.6C49.9473 286.1 43.1052 291 36.9473 297.3C30.7894 303.6 26 310.6 22.5789 319C19.1579 327.4 17.1053 335.8 17.1053 345.6Z" fill="white"/>
</svg>
