<svg width="250" height="32" viewBox="0 0 250 32" fill="none" xmlns="http://www.w3.org/2000/svg">
<path d="M15.9697 0.320312C17.383 0.320321 18.4767 0.759686 19.25 1.63965C20.05 2.51965 20.4492 3.64 20.4492 5C20.4492 6.06667 20.2095 7.20039 19.7295 8.40039C19.2762 9.60021 18.6495 10.7333 17.8496 11.7998C17.0496 12.8398 16.1165 13.6937 15.0498 14.3604C14.0098 15.027 12.9028 15.3604 11.7295 15.3604C10.9829 15.3603 10.4097 15.1464 10.0098 14.7197C9.60983 14.2931 9.41016 13.7066 9.41016 12.96C9.41016 12.7733 9.44931 12.4533 9.5293 12C9.6093 11.5467 9.72965 11.0796 9.88965 10.5996C10.0496 10.0931 10.2235 9.66689 10.4102 9.32031C10.5968 8.94698 10.7831 8.75977 10.9697 8.75977C11.0764 8.75978 11.1433 8.81328 11.1699 8.91992C11.1966 8.99992 11.21 9.08016 11.21 9.16016C11.2099 9.74677 11.0495 10.3333 10.7295 10.9199C10.4095 11.5065 10.25 12.1466 10.25 12.8398C10.25 13.3732 10.3961 13.8135 10.6895 14.1602C10.9828 14.5068 11.4097 14.6797 11.9697 14.6797C12.983 14.6797 13.9296 14.3731 14.8096 13.7598C15.7162 13.1198 16.5166 12.3069 17.21 11.3203C17.9032 10.3337 18.4496 9.30682 18.8496 8.24023C19.2496 7.147 19.4492 6.14684 19.4492 5.24023C19.4492 4.17357 19.1159 3.29294 18.4492 2.59961C17.8093 1.87991 16.9427 1.51953 15.8496 1.51953C14.783 1.51955 13.7027 1.80036 12.6094 2.36035C11.5428 2.89366 10.5025 3.61298 9.48926 4.51953C8.50259 5.39953 7.56945 6.37376 6.68945 7.44043C5.83625 8.50697 5.08914 9.58649 4.44922 10.6797C3.80929 11.7462 3.30301 12.7331 2.92969 13.6396C2.42302 14.8396 2.02283 16.0804 1.72949 17.3604C1.46288 18.6136 1.33008 19.8937 1.33008 21.2002C1.3301 22.7466 1.54316 24.1997 1.96973 25.5596C2.42306 26.8929 3.16996 27.9731 4.20996 28.7998C5.24995 29.5998 6.6502 30 8.41016 30H8.80957C10.0361 30 11.2627 29.6398 12.4893 28.9199C13.7159 28.1733 14.8898 27.2267 16.0098 26.0801C17.1298 24.9334 18.1298 23.7596 19.0098 22.5596C19.9163 21.3331 20.6634 20.2402 21.25 19.2803C21.6233 18.667 21.9433 18.0537 22.21 17.4404C22.5033 16.8004 22.8099 16.1729 23.1299 15.5596C23.1832 15.4797 23.2502 15.3868 23.3301 15.2803C23.41 15.1737 23.5028 15.1202 23.6094 15.1201C23.6626 15.2799 23.6894 15.4129 23.6895 15.5195C23.6895 15.6795 23.6627 15.8133 23.6094 15.9199C23.2627 16.9865 22.7163 18.1864 21.9697 19.5195C21.2231 20.8527 20.3299 22.1997 19.29 23.5596C18.25 24.9196 17.1163 26.187 15.8896 27.3604C14.6897 28.5069 13.4364 29.4268 12.1299 30.1201C10.85 30.84 9.59665 31.2001 8.37012 31.2002C6.34345 31.2002 4.71592 30.7465 3.48926 29.8398C2.28948 28.9332 1.42293 27.72 0.889648 26.2002C0.383 24.6803 0.129901 23.0135 0.129883 21.2002C0.129883 19.8136 0.276024 18.44 0.569336 17.0801C0.889327 15.7201 1.32967 14.4001 1.88965 13.1201C2.28963 12.1602 2.84938 11.1066 3.56934 9.95996C4.28934 8.81329 5.11647 7.67957 6.0498 6.55957C6.98302 5.41308 7.98329 4.37365 9.0498 3.44043C10.143 2.50722 11.276 1.76017 12.4492 1.2002C13.6226 0.61353 14.7964 0.320312 15.9697 0.320312ZM174.179 12.4004C174.632 12.4004 175.126 12.6 175.659 13C176.192 13.4 176.459 13.8403 176.459 14.3203C176.459 14.5068 176.392 14.6665 176.259 14.7998C176.285 14.7731 176.352 14.7598 176.459 14.7598C176.966 14.7598 177.219 15.0265 177.219 15.5596C177.219 16.1728 177.126 16.9066 176.939 17.7598C176.779 18.6131 176.606 19.5205 176.419 20.4805C176.232 21.4136 176.139 22.3203 176.139 23.2002C176.139 23.5202 176.165 23.9071 176.219 24.3604C176.272 24.7868 176.393 25.173 176.579 25.5195C176.792 25.8662 177.126 26.04 177.579 26.04C178.006 26.04 178.459 25.8137 178.939 25.3604C179.419 24.907 179.886 24.3463 180.339 23.6797C180.792 23.0131 181.219 22.3463 181.619 21.6797C182.019 21.0131 182.353 20.4533 182.619 20C182.912 19.5471 183.112 19.3208 183.219 19.3203C183.405 19.3203 183.499 19.4399 183.499 19.6797C183.499 19.9997 183.352 20.4667 183.059 21.0801C182.792 21.6666 182.433 22.3202 181.979 23.04C181.526 23.7334 181.019 24.4134 180.459 25.0801C179.926 25.7199 179.379 26.2531 178.819 26.6797C178.286 27.0797 177.806 27.2803 177.379 27.2803C176.686 27.2802 176.153 27.0001 175.779 26.4404C175.433 25.8538 175.192 25.1602 175.059 24.3604C174.952 23.5604 174.899 22.8134 174.899 22.1201V21.4404C174.899 21.2271 174.913 21.0399 174.939 20.8799C174.779 21.2532 174.552 21.813 174.259 22.5596C173.965 23.2796 173.619 24.08 173.219 24.96C172.845 25.8133 172.433 26.6405 171.979 27.4404C171.553 28.2137 171.112 28.8537 170.659 29.3604C170.206 29.8669 169.766 30.1201 169.339 30.1201C168.886 30.1201 168.552 29.8935 168.339 29.4404C168.126 29.0138 167.993 28.52 167.939 27.96C167.886 27.4 167.859 26.973 167.859 26.6797C167.859 25.6666 167.952 24.6002 168.139 23.4805C168.325 22.3339 168.566 21.2669 168.859 20.2803C168.993 19.827 169.232 19.1735 169.579 18.3203C169.926 17.4403 170.339 16.5463 170.819 15.6396C171.326 14.7333 171.859 13.9736 172.419 13.3604C173.005 12.7205 173.592 12.4005 174.179 12.4004ZM228.781 4.67969C228.968 4.67969 229.155 4.74655 229.342 4.87988C229.528 5.0132 229.621 5.17372 229.621 5.36035C229.621 5.44098 229.555 5.77455 229.422 6.36035C229.289 6.94696 229.115 7.64055 228.901 8.44043C228.715 9.21345 228.542 9.94657 228.382 10.6396C228.249 11.333 228.155 11.8134 228.102 12.0801C229.275 11.7334 230.395 11.4536 231.462 11.2402C232.555 11.027 233.702 10.9199 234.901 10.9199H235.502C235.795 10.9199 236.075 10.9333 236.342 10.96C236.635 10.9866 236.781 11.0401 236.781 11.1201C236.515 11.2267 236.221 11.307 235.901 11.3604C235.608 11.4137 235.315 11.4538 235.021 11.4805C233.742 11.5871 232.528 11.8269 231.382 12.2002C230.262 12.5735 229.115 12.9871 227.941 13.4404C227.755 14.9603 227.595 16.5069 227.462 18.0801C227.329 19.6266 227.262 21.1598 227.262 22.6797C227.262 22.973 227.275 23.3733 227.302 23.8799C227.328 24.3599 227.382 24.8537 227.462 25.3604C227.542 25.84 227.675 26.2531 227.861 26.5996C228.048 26.9461 228.315 27.12 228.661 27.1201C229.114 27.1201 229.582 26.8669 230.062 26.3604C230.541 25.827 231.022 25.187 231.502 24.4404C231.982 23.6672 232.421 22.8934 232.821 22.1201C233.221 21.3469 233.568 20.6934 233.861 20.1602C234.181 19.6268 234.395 19.347 234.502 19.3203V19.4404C234.502 19.8404 234.368 20.4004 234.102 21.1201C233.835 21.8401 233.475 22.6138 233.021 23.4404C232.595 24.2402 232.115 25.0133 231.582 25.7598C231.075 26.5064 230.555 27.1196 230.021 27.5996C229.515 28.0794 229.035 28.3201 228.582 28.3203C227.995 28.3203 227.528 28.1197 227.182 27.7197C226.835 27.2931 226.568 26.7733 226.382 26.1602C226.222 25.5203 226.115 24.8935 226.062 24.2803C226.008 23.6403 225.981 23.1197 225.981 22.7197C225.981 21.2799 226.035 19.8268 226.142 18.3604C226.275 16.8937 226.409 15.44 226.542 14C226.089 14.1866 225.648 14.3997 225.222 14.6396C224.822 14.8796 224.448 15.1863 224.102 15.5596C224.061 15.6 224.012 15.6392 223.956 15.6797C223.972 15.8691 223.981 16.0292 223.981 16.1602C223.981 16.3468 223.968 16.6669 223.941 17.1201C223.915 17.5467 223.848 17.947 223.741 18.3203C223.661 18.6933 223.502 18.8798 223.262 18.8799C223.048 18.8799 222.941 18.6401 222.941 18.1602C222.941 17.9468 222.955 17.7462 222.981 17.5596C223.008 17.3732 223.021 17.2267 223.021 17.1201C223.021 16.9868 223.008 16.6801 222.981 16.2002C222.955 15.6935 222.888 15.2131 222.781 14.7598C222.701 14.3069 222.582 14.0804 222.422 14.0801C222.262 14.0801 222.061 14.2397 221.821 14.5596C221.608 14.8528 221.382 15.2131 221.142 15.6396C220.928 16.0396 220.729 16.4399 220.542 16.8398C220.382 17.2129 220.275 17.4796 220.222 17.6396C219.822 18.6263 219.395 19.7467 218.941 21C218.515 22.2533 218.141 23.5199 217.821 24.7998C217.528 26.0531 217.382 27.227 217.382 28.3203C217.195 28.6934 216.902 28.8798 216.502 28.8799C216.315 28.8799 216.168 28.813 216.062 28.6797C215.955 28.5464 215.901 28.3867 215.901 28.2002C215.901 27.1869 215.941 26.1734 216.021 25.1602C216.128 24.1202 216.182 23.0934 216.182 22.0801C216.182 21.7699 216.175 21.4223 216.163 21.0371C216.157 21.051 216.151 21.066 216.145 21.0801C215.878 21.6666 215.519 22.3202 215.065 23.04C214.612 23.7334 214.105 24.4134 213.545 25.0801C213.012 25.7199 212.465 26.2531 211.905 26.6797C211.372 27.0797 210.892 27.2803 210.465 27.2803C209.772 27.2802 209.239 27.0001 208.865 26.4404C208.519 25.8538 208.278 25.1602 208.145 24.3604C208.038 23.5604 207.985 22.8134 207.985 22.1201V21.4404C207.985 21.2271 207.999 21.0399 208.025 20.8799C207.865 21.2532 207.638 21.813 207.345 22.5596C207.051 23.2796 206.705 24.08 206.305 24.96C205.931 25.8133 205.519 26.6405 205.065 27.4404C204.639 28.2137 204.198 28.8537 203.745 29.3604C203.292 29.8669 202.851 30.1201 202.425 30.1201C201.972 30.1201 201.638 29.8935 201.425 29.4404C201.211 29.0138 201.079 28.52 201.025 27.96C200.972 27.4 200.945 26.973 200.945 26.6797C200.945 25.6666 201.038 24.6002 201.225 23.4805C201.411 22.3339 201.652 21.2669 201.945 20.2803C202.079 19.827 202.318 19.1735 202.665 18.3203C203.012 17.4403 203.425 16.5463 203.905 15.6396C204.412 14.7333 204.945 13.9736 205.505 13.3604C206.091 12.7205 206.678 12.4005 207.265 12.4004C207.718 12.4004 208.212 12.6 208.745 13C209.278 13.4 209.545 13.8403 209.545 14.3203C209.545 14.5068 209.478 14.6665 209.345 14.7998C209.371 14.7731 209.438 14.7598 209.545 14.7598C210.051 14.7598 210.305 15.0265 210.305 15.5596C210.305 16.1728 210.212 16.9066 210.025 17.7598C209.865 18.6131 209.692 19.5205 209.505 20.4805C209.318 21.4136 209.225 22.3203 209.225 23.2002C209.225 23.5202 209.251 23.9071 209.305 24.3604C209.358 24.7868 209.479 25.173 209.665 25.5195C209.878 25.8662 210.212 26.04 210.665 26.04C211.092 26.04 211.545 25.8137 212.025 25.3604C212.505 24.907 212.971 24.3463 213.425 23.6797C213.878 23.0131 214.305 22.3463 214.705 21.6797C215.105 21.0131 215.438 20.4533 215.705 20C215.863 19.7563 215.994 19.5785 216.098 19.4658C216.068 18.4588 215.976 17.4764 215.821 16.5195C215.688 15.5065 215.448 14.7334 215.102 14.2002C215.075 14.1469 215.048 14.1067 215.021 14.0801C214.995 14.0267 214.981 13.9733 214.981 13.9199C214.981 13.76 215.062 13.6529 215.222 13.5996C215.381 13.5198 215.515 13.4806 215.621 13.4805C215.994 13.4805 216.289 13.6935 216.502 14.1201C216.715 14.5467 216.875 15.0933 216.981 15.7598C217.088 16.4264 217.155 17.1199 217.182 17.8398C217.235 18.5331 217.262 19.1732 217.262 19.7598V21.6797C217.288 21.9197 217.302 22.1738 217.302 22.4404C217.408 22.0671 217.595 21.4931 217.861 20.7197C218.128 19.9465 218.448 19.0933 218.821 18.1602C219.195 17.2003 219.595 16.2937 220.021 15.4404C220.475 14.5605 220.915 13.8403 221.342 13.2803C221.795 12.7205 222.221 12.4406 222.621 12.4404C223.021 12.4404 223.315 12.6935 223.502 13.2002C223.592 13.4434 223.664 13.6963 223.723 13.958C223.956 13.8018 224.215 13.6544 224.502 13.5195C224.982 13.2797 225.421 13.0799 225.821 12.9199C226.248 12.76 226.541 12.653 226.701 12.5996C226.728 12.3862 226.781 11.9865 226.861 11.4004C226.968 10.7871 227.088 10.1069 227.222 9.36035C227.355 8.58711 227.501 7.85342 227.661 7.16016C227.848 6.44031 228.035 5.85368 228.222 5.40039C228.408 4.92066 228.595 4.67996 228.781 4.67969ZM240.233 12.4004C240.687 12.4004 241.181 12.6 241.714 13C242.247 13.4 242.514 13.8403 242.514 14.3203C242.514 14.5068 242.447 14.6665 242.313 14.7998C242.34 14.7731 242.407 14.7598 242.514 14.7598C243.02 14.7598 243.273 15.0265 243.273 15.5596C243.273 16.1728 243.181 16.9066 242.994 17.7598C242.834 18.6131 242.66 19.5205 242.474 20.4805C242.287 21.4136 242.193 22.3203 242.193 23.2002C242.193 23.5202 242.22 23.9071 242.273 24.3604C242.327 24.7868 242.447 25.173 242.634 25.5195C242.847 25.8662 243.18 26.04 243.634 26.04C244.06 26.04 244.514 25.8137 244.994 25.3604C245.474 24.907 245.94 24.3463 246.394 23.6797C246.847 23.0131 247.274 22.3463 247.674 21.6797C248.074 21.0131 248.407 20.4533 248.674 20C248.967 19.5471 249.167 19.3208 249.273 19.3203C249.46 19.3203 249.554 19.4399 249.554 19.6797C249.554 19.9997 249.407 20.4667 249.113 21.0801C248.847 21.6666 248.487 22.3202 248.034 23.04C247.581 23.7334 247.074 24.4134 246.514 25.0801C245.98 25.7199 245.434 26.2531 244.874 26.6797C244.341 27.0797 243.86 27.2803 243.434 27.2803C242.741 27.2802 242.207 27.0001 241.834 26.4404C241.487 25.8538 241.247 25.1602 241.113 24.3604C241.007 23.5604 240.954 22.8134 240.954 22.1201V21.4404C240.954 21.2271 240.967 21.0399 240.994 20.8799C240.834 21.2532 240.607 21.813 240.313 22.5596C240.02 23.2796 239.673 24.08 239.273 24.96C238.9 25.8133 238.488 26.6405 238.034 27.4404C237.608 28.2137 237.167 28.8537 236.714 29.3604C236.261 29.8669 235.82 30.1201 235.394 30.1201C234.94 30.1201 234.607 29.8935 234.394 29.4404C234.18 29.0138 234.047 28.52 233.994 27.96C233.941 27.4 233.914 26.973 233.914 26.6797C233.914 25.6666 234.007 24.6002 234.193 23.4805C234.38 22.3339 234.621 21.2669 234.914 20.2803C235.047 19.827 235.287 19.1735 235.634 18.3203C235.98 17.4403 236.394 16.5463 236.874 15.6396C237.381 14.7333 237.914 13.9736 238.474 13.3604C239.06 12.7205 239.647 12.4005 240.233 12.4004ZM29.291 11.96C29.8241 11.9601 30.2906 12.1866 30.6904 12.6396C31.0904 13.093 31.4238 13.6536 31.6904 14.3203C31.9571 14.9869 32.1577 15.6403 32.291 16.2803C32.4509 16.92 32.5303 17.4399 32.5303 17.8398C32.5303 19.0665 32.4109 20.2805 32.1709 21.4805L32.4902 21.5195C33.2636 21.5195 33.8643 21.4002 34.291 21.1602C34.7176 20.9202 35.0511 20.6938 35.291 20.4805C35.531 20.2405 35.7306 20.1201 35.8906 20.1201C36.0506 20.1201 36.1309 20.2137 36.1309 20.4004C36.1307 20.7202 35.9569 21.0137 35.6104 21.2803C35.2904 21.5202 34.89 21.7467 34.4102 21.96C33.9303 22.1465 33.4639 22.2804 33.0107 22.3604C32.5575 22.4403 32.2107 22.4537 31.9707 22.4004C31.8374 22.9603 31.6109 23.654 31.291 24.4805C30.9977 25.2803 30.6241 26.08 30.1709 26.8799C29.7442 27.6532 29.2371 28.3065 28.6504 28.8398C28.0637 29.3731 27.4238 29.6396 26.7305 29.6396C26.2239 29.6396 25.7968 29.4534 25.4502 29.0801C25.1303 28.7068 24.8771 28.253 24.6904 27.7197C24.5038 27.1599 24.371 26.5999 24.291 26.04C24.2377 25.48 24.2109 25.013 24.2109 24.6396C24.211 24.2396 24.2511 23.5995 24.3311 22.7197C24.4377 21.8131 24.5972 20.8129 24.8105 19.7197C25.0239 18.6265 25.2904 17.5728 25.6104 16.5596C25.9303 15.5197 26.3039 14.6532 26.7305 13.96C27.1838 13.2666 27.7043 12.8932 28.291 12.8398C28.371 12.6001 28.4906 12.4001 28.6504 12.2402C28.8104 12.0536 29.0243 11.96 29.291 11.96ZM75.1709 0.55957C75.7308 0.559653 76.1569 0.813728 76.4502 1.32031C76.7435 1.8003 76.9441 2.36002 77.0508 3C77.1574 3.61312 77.2109 4.13299 77.2109 4.55957C77.2109 5.0929 77.1708 5.6402 77.0908 6.2002C76.9042 7.53348 76.5708 8.96053 76.0908 10.4805C75.6375 12.0002 75.0509 13.4534 74.3311 14.8398C73.6377 16.1998 72.7838 17.3737 71.7705 18.3604C71.5839 18.5203 71.3439 18.7201 71.0508 18.96C70.7842 19.1732 70.5042 19.2802 70.2109 19.2803C70.131 20.1869 70.0908 21.1202 70.0908 22.0801C70.0908 22.4267 70.1042 22.9465 70.1309 23.6396C70.1842 24.3062 70.2769 25.0132 70.4102 25.7598C70.5701 26.4797 70.7975 27.1064 71.0908 27.6396C71.4108 28.1463 71.8244 28.4004 72.3311 28.4004C72.8909 28.4002 73.4241 28.106 73.9307 27.5195C74.4638 26.9063 74.9569 26.16 75.4102 25.2803C75.8635 24.3736 76.2771 23.4796 76.6504 22.5996C77.0236 21.6933 77.3304 20.9469 77.5703 20.3604C77.837 19.747 78.0242 19.4271 78.1309 19.4004C78.2107 19.507 78.251 19.6668 78.251 19.8799C78.251 20.3332 78.1306 20.9465 77.8906 21.7197C77.6506 22.4931 77.3173 23.3336 76.8906 24.2402C76.4906 25.1202 76.0235 25.9732 75.4902 26.7998C74.9569 27.5998 74.3972 28.2531 73.8105 28.7598C73.2506 29.2664 72.6774 29.5195 72.0908 29.5195C71.3708 29.5195 70.7978 29.2397 70.3711 28.6797C69.9444 28.093 69.6369 27.3862 69.4502 26.5596C69.2636 25.7064 69.1441 24.8665 69.0908 24.04C69.0375 23.2134 69.0107 22.5601 69.0107 22.0801C69.0107 19.3867 69.3173 16.6666 69.9307 13.9199C70.224 12.64 70.5038 11.5196 70.7705 10.5596C71.0638 9.59971 71.3705 8.70645 71.6904 7.87988C72.0104 7.05332 72.3706 6.20019 72.7705 5.32031C73.1972 4.44035 73.6776 3.44026 74.2109 2.32031H74.0908C73.9308 2.32031 73.7971 2.25345 73.6904 2.12012C73.6104 1.96012 73.5703 1.81302 73.5703 1.67969C73.5704 1.35983 73.771 1.09315 74.1709 0.879883C74.5708 0.666642 74.9043 0.55957 75.1709 0.55957ZM36.166 13.4805C36.6191 13.4806 36.9394 13.6936 37.126 14.1201C37.3392 14.52 37.472 15.0132 37.5254 15.5996C37.6054 16.1863 37.6455 16.7469 37.6455 17.2803C37.6455 19.7868 37.5653 22.3066 37.4053 24.8398C37.5119 24.5465 37.7259 24.0268 38.0459 23.2803C38.3659 22.5336 38.7527 21.6931 39.2061 20.7598C39.6593 19.8266 40.1256 18.9333 40.6055 18.0801C41.1121 17.2001 41.5792 16.4799 42.0059 15.9199C42.4325 15.3334 42.7793 15.04 43.0459 15.04C43.419 15.0402 43.6857 15.28 43.8457 15.7598C44.0323 16.213 44.1259 16.5866 44.126 16.8799C44.126 18.1064 44.0591 19.3331 43.9258 20.5596C43.8191 21.7862 43.7656 23.0269 43.7656 24.2803C43.7656 24.4403 43.779 24.7471 43.8057 25.2002C43.859 25.6268 43.9392 26.0405 44.0459 26.4404C44.1792 26.8134 44.379 26.9999 44.6455 27C44.8588 27 45.1388 26.7601 45.4854 26.2803C45.832 25.8003 46.1921 25.2396 46.5654 24.5996C46.9387 23.933 47.2721 23.3063 47.5654 22.7197C47.8586 22.1333 48.0593 21.7205 48.166 21.4805C48.1927 21.4272 48.2194 21.3736 48.2461 21.3203C48.2727 21.2405 48.3121 21.2004 48.3652 21.2002C48.4985 21.2002 48.5787 21.3065 48.6055 21.5195C48.6321 21.7061 48.6455 21.8265 48.6455 21.8799C48.6455 22.1465 48.4994 22.6136 48.2061 23.2803C47.9127 23.9469 47.5393 24.6538 47.0859 25.4004C46.6593 26.147 46.2056 26.787 45.7256 27.3203C45.2723 27.8535 44.8586 28.1201 44.4854 28.1201C43.9522 28.12 43.5518 27.907 43.2852 27.4805C43.0452 27.0538 42.8857 26.5734 42.8057 26.04C42.7257 25.48 42.6855 25.013 42.6855 24.6396C42.6856 23.7598 42.7257 22.8799 42.8057 22C42.9123 21.1201 42.9658 20.2402 42.9658 19.3604C42.9658 19.2804 42.9524 19.0798 42.9258 18.7598C42.9258 18.4398 42.9124 18.1331 42.8857 17.8398C42.8591 17.5466 42.7922 17.4004 42.6855 17.4004C42.4189 17.4005 42.0721 17.7338 41.6455 18.4004C41.2456 19.067 40.8051 19.9068 40.3252 20.9199C39.8719 21.9332 39.4191 22.9868 38.9658 24.0801C38.5125 25.1467 38.1123 26.1066 37.7656 26.96C37.4458 27.8129 37.2193 28.3862 37.0859 28.6797C37.0326 28.7863 36.9524 28.8933 36.8457 29C36.7657 29.1067 36.6454 29.1602 36.4854 29.1602C36.2989 29.1601 36.1525 29.0932 36.0459 28.96C35.966 28.8001 35.9258 28.6269 35.9258 28.4404C35.9258 26.9471 36.006 25.4533 36.166 23.96C36.3527 22.4401 36.4453 20.9336 36.4453 19.4404C36.4453 19.2804 36.4319 18.9729 36.4053 18.5195C36.4053 18.0397 36.3785 17.5332 36.3252 17C36.2985 16.44 36.246 15.9462 36.166 15.5195C36.1127 15.0664 36.0324 14.7863 35.9258 14.6797C35.8192 14.5997 35.7121 14.507 35.6055 14.4004C35.5255 14.2937 35.4854 14.16 35.4854 14C35.4854 13.84 35.5522 13.7196 35.6855 13.6396C35.8455 13.533 36.0061 13.4805 36.166 13.4805ZM105.893 13.4805C106.346 13.4806 106.666 13.6936 106.853 14.1201C107.066 14.52 107.199 15.0132 107.252 15.5996C107.332 16.1863 107.372 16.7469 107.372 17.2803C107.372 19.7868 107.292 22.3066 107.132 24.8398C107.239 24.5465 107.452 24.0268 107.772 23.2803C108.092 22.5336 108.479 21.6931 108.933 20.7598C109.386 19.8266 109.852 18.9333 110.332 18.0801C110.839 17.2001 111.306 16.4799 111.732 15.9199C112.159 15.3334 112.506 15.04 112.772 15.04C113.146 15.0402 113.412 15.28 113.572 15.7598C113.759 16.213 113.853 16.5866 113.853 16.8799C113.853 18.1064 113.786 19.3331 113.652 20.5596C113.546 21.7862 113.492 23.0269 113.492 24.2803C113.492 24.4403 113.506 24.7471 113.532 25.2002C113.586 25.6268 113.666 26.0405 113.772 26.4404C113.906 26.8134 114.106 26.9999 114.372 27C114.585 27 114.865 26.7601 115.212 26.2803C115.559 25.8003 115.919 25.2396 116.292 24.5996C116.637 23.9837 116.946 23.4011 117.223 22.8535V22.7598C117.249 22.4932 117.276 22.2266 117.303 21.96C117.409 21.1333 117.556 20.3195 117.743 19.5195C117.93 18.6931 118.076 17.8665 118.183 17.04C118.236 16.6134 118.276 16.1998 118.303 15.7998C118.329 15.3999 118.356 14.9862 118.383 14.5596C118.409 14.4264 118.45 14.3067 118.503 14.2002C118.556 14.0669 118.663 14 118.823 14C119.116 14.0001 119.289 14.1339 119.343 14.4004C119.423 14.6403 119.463 14.8668 119.463 15.0801C119.463 16.04 119.369 16.9866 119.183 17.9199C118.996 18.8532 118.81 19.7865 118.623 20.7197C118.436 21.6529 118.343 22.5997 118.343 23.5596V24.2803C118.369 24.6269 118.41 25.0139 118.463 25.4404C118.516 25.8402 118.596 26.1872 118.703 26.4805C118.836 26.7734 118.996 26.9198 119.183 26.9199C119.423 26.9199 119.729 26.64 120.103 26.0801C120.503 25.5201 120.903 24.8534 121.303 24.0801C121.729 23.2801 122.103 22.5465 122.423 21.8799C122.769 21.1871 122.996 20.7206 123.103 20.4805C123.476 19.6539 123.717 18.8935 123.823 18.2002C123.957 17.507 124.049 16.8669 124.103 16.2803C124.156 15.6671 124.29 15.067 124.503 14.4805C124.636 14.1606 124.836 14.0001 125.103 14C125.502 14 125.703 14.2399 125.703 14.7197C125.703 15.5463 125.609 16.5465 125.423 17.7197C125.236 18.8664 125.143 20.0001 125.143 21.1201V22.8799C125.143 23.2532 125.169 23.6534 125.223 24.0801C125.303 24.5067 125.41 24.8668 125.543 25.1602C125.703 25.4533 125.929 25.5996 126.223 25.5996C126.569 25.5996 126.916 25.4 127.263 25C127.609 24.6 127.929 24.1329 128.223 23.5996C128.543 23.0665 128.809 22.6001 129.022 22.2002C129.236 21.8002 129.396 21.5996 129.503 21.5996C129.663 21.5997 129.743 21.7067 129.743 21.9199C129.743 22.1599 129.609 22.5467 129.343 23.0801C129.103 23.5867 128.783 24.1198 128.383 24.6797C128.009 25.2397 127.609 25.7201 127.183 26.1201C126.783 26.52 126.436 26.7197 126.143 26.7197C125.529 26.7197 125.063 26.4665 124.743 25.96C124.45 25.4533 124.236 24.8267 124.103 24.0801C123.996 23.3334 123.942 22.6133 123.942 21.9199V20.2402C123.836 20.5602 123.663 21.0401 123.423 21.6797C123.183 22.2929 122.903 22.9732 122.583 23.7197C122.263 24.4396 121.916 25.1332 121.543 25.7998C121.17 26.4665 120.769 27.0138 120.343 27.4404C119.943 27.8669 119.543 28.0801 119.143 28.0801C118.716 28.08 118.369 27.9062 118.103 27.5596C117.863 27.213 117.676 26.7866 117.543 26.2803C117.41 25.7469 117.316 25.2398 117.263 24.7598C117.26 24.7153 117.259 24.6717 117.257 24.6289C117.118 24.8806 116.971 25.1389 116.812 25.4004C116.386 26.147 115.932 26.787 115.452 27.3203C114.999 27.8535 114.585 28.1201 114.212 28.1201C113.679 28.12 113.278 27.907 113.012 27.4805C112.772 27.0538 112.612 26.5734 112.532 26.04C112.452 25.48 112.412 25.013 112.412 24.6396C112.412 23.7598 112.452 22.8799 112.532 22C112.639 21.1201 112.692 20.2402 112.692 19.3604C112.692 19.2804 112.679 19.0798 112.652 18.7598C112.652 18.4398 112.639 18.1331 112.612 17.8398C112.586 17.5466 112.519 17.4004 112.412 17.4004C112.145 17.4005 111.799 17.7338 111.372 18.4004C110.972 19.067 110.532 19.9068 110.052 20.9199C109.598 21.9332 109.146 22.9868 108.692 24.0801C108.239 25.1467 107.839 26.1066 107.492 26.96C107.172 27.8129 106.946 28.3862 106.812 28.6797C106.759 28.7863 106.679 28.8933 106.572 29C106.492 29.1067 106.372 29.1602 106.212 29.1602C106.025 29.1601 105.879 29.0932 105.772 28.96C105.693 28.8001 105.652 28.6269 105.652 28.4404C105.652 26.9471 105.733 25.4533 105.893 23.96C106.079 22.4401 106.172 20.9336 106.172 19.4404C106.172 19.2804 106.159 18.9729 106.132 18.5195C106.132 18.0397 106.105 17.5332 106.052 17C106.025 16.44 105.973 15.9462 105.893 15.5195C105.839 15.0664 105.759 14.7863 105.652 14.6797C105.546 14.5997 105.439 14.507 105.332 14.4004C105.252 14.2937 105.212 14.16 105.212 14C105.212 13.84 105.279 13.7196 105.412 13.6396C105.572 13.533 105.733 13.4805 105.893 13.4805ZM53.7305 12.4004C54.077 12.4004 54.4106 12.4932 54.7305 12.6797C55.077 12.8396 55.2508 13.1198 55.251 13.5195C55.251 13.6262 55.2242 13.7733 55.1709 13.96C55.1176 14.1466 55.024 14.2402 54.8906 14.2402C54.7041 14.2401 54.5444 14.1465 54.4111 13.96C54.3045 13.7466 54.1707 13.6396 54.0107 13.6396C53.5575 13.6397 53.011 13.8269 52.3711 14.2002C51.7579 14.5735 51.1578 15.0531 50.5713 15.6396C49.9846 16.1996 49.4908 16.7871 49.0908 17.4004C48.7176 18.0136 48.5312 18.5601 48.5312 19.04C48.5313 19.36 48.7176 19.6399 49.0908 19.8799C49.4642 20.1199 49.9045 20.3205 50.4111 20.4805C50.9443 20.6404 51.4642 20.8 51.9707 20.96C52.4774 21.0933 52.8508 21.2404 53.0908 21.4004C53.2241 21.2671 53.4506 21.053 53.7705 20.7598C54.0905 20.4665 54.4506 20.1464 54.8506 19.7998C55.2505 19.4532 55.6107 19.1599 55.9307 18.9199C56.2446 18.7026 56.4714 18.584 56.6104 18.5635C56.7061 18.0555 56.7889 17.548 56.8545 17.04C56.9078 16.6134 56.9479 16.1998 56.9746 15.7998C57.0013 15.3999 57.028 14.9862 57.0547 14.5596C57.0813 14.4264 57.1216 14.3067 57.1748 14.2002C57.2281 14.0669 57.3351 14 57.4951 14C57.7882 14.0001 57.9613 14.1339 58.0146 14.4004C58.0946 14.6403 58.1348 14.8668 58.1348 15.0801C58.1348 16.04 58.0411 16.9866 57.8545 17.9199C57.6678 18.8532 57.4816 19.7865 57.2949 20.7197C57.1083 21.6529 57.0147 22.5997 57.0146 23.5596V24.2803C57.0413 24.6269 57.0814 25.0139 57.1348 25.4404C57.1881 25.8402 57.2684 26.1872 57.375 26.4805C57.5082 26.7734 57.668 26.9198 57.8545 26.9199C58.0945 26.9199 58.4011 26.64 58.7744 26.0801C59.1744 25.5201 59.5746 24.8534 59.9746 24.0801C60.4013 23.2801 60.7747 22.5465 61.0947 21.8799C61.4411 21.1871 61.6677 20.7206 61.7744 20.4805C62.1477 19.6539 62.3884 18.8935 62.4951 18.2002C62.6284 17.507 62.7211 16.8669 62.7744 16.2803C62.8277 15.6671 62.9616 15.067 63.1748 14.4805C63.3081 14.1606 63.5079 14.0001 63.7744 14C64.1743 14 64.3749 14.2399 64.375 14.7197C64.375 15.5463 64.2814 16.5465 64.0947 17.7197C63.9081 18.8664 63.8145 20.0001 63.8145 21.1201V22.8799C63.8145 23.2532 63.8412 23.6534 63.8945 24.0801C63.9745 24.5067 64.0815 24.8668 64.2148 25.1602C64.3748 25.4533 64.6013 25.5996 64.8945 25.5996C65.2412 25.5996 65.5879 25.4 65.9346 25C66.2812 24.6 66.6012 24.1329 66.8945 23.5996C67.2144 23.0665 67.4811 22.6001 67.6943 22.2002C67.9077 21.8002 68.0681 21.5996 68.1748 21.5996C68.3347 21.5997 68.415 21.7067 68.415 21.9199C68.415 22.1599 68.2813 22.5467 68.0146 23.0801C67.7747 23.5867 67.4546 24.1198 67.0547 24.6797C66.6814 25.2397 66.2812 25.7201 65.8545 26.1201C65.4546 26.52 65.1077 26.7197 64.8145 26.7197C64.2013 26.7197 63.735 26.4665 63.415 25.96C63.1217 25.4533 62.9077 24.8267 62.7744 24.0801C62.6677 23.3334 62.6143 22.6133 62.6143 21.9199V20.2402C62.5076 20.5602 62.3346 21.0401 62.0947 21.6797C61.8548 22.2929 61.5748 22.9732 61.2549 23.7197C60.9349 24.4396 60.5881 25.1332 60.2148 25.7998C59.8415 26.4665 59.4413 27.0138 59.0146 27.4404C58.6147 27.8669 58.2144 28.0801 57.8145 28.0801C57.3879 28.08 57.041 27.9062 56.7744 27.5596C56.5346 27.213 56.3481 26.7866 56.2148 26.2803C56.0815 25.7469 55.9879 25.2398 55.9346 24.7598C55.9079 24.2532 55.8945 23.8529 55.8945 23.5596V22.7598C55.9212 22.4932 55.9479 22.2266 55.9746 21.96C56.0813 21.1333 56.2284 20.3195 56.415 19.5195C56.4279 19.4627 56.4387 19.4055 56.4512 19.3486C56.4377 19.3652 56.4253 19.3833 56.4111 19.4004C56.1712 19.6937 55.8645 20.0137 55.4912 20.3604L54.4912 21.3604C54.1712 21.6537 53.9439 21.8667 53.8105 22C54.0505 22.4 54.1709 22.8269 54.1709 23.2803C54.1708 23.7335 53.9711 24.2935 53.5713 24.96C53.1713 25.6 52.6641 26.2399 52.0508 26.8799C51.4641 27.5199 50.8509 28.0538 50.2109 28.4805C49.5712 28.9069 49.0245 29.12 48.5713 29.1201C48.0914 29.1201 47.8507 28.8801 47.8506 28.4004C47.8506 27.9471 48.0111 27.4399 48.3311 26.8799C48.6777 26.2933 49.0913 25.7067 49.5713 25.1201C50.0512 24.507 50.5309 23.947 51.0107 23.4404L52.251 22.2002C51.8776 22.0135 51.4106 21.8531 50.8506 21.7197C50.3174 21.5598 49.7708 21.3868 49.2109 21.2002C48.6776 20.9869 48.2239 20.7204 47.8506 20.4004C47.5039 20.0537 47.3311 19.6 47.3311 19.04C47.3311 18.4534 47.5441 17.7867 47.9707 17.04C48.424 16.2934 48.9981 15.5732 49.6914 14.8799C50.3845 14.1601 51.0908 13.5734 51.8105 13.1201C52.5303 12.6403 53.1706 12.4005 53.7305 12.4004ZM134.099 12.0801C134.312 12.0801 134.472 12.1737 134.579 12.3604C134.712 12.5202 134.726 12.6935 134.619 12.8799C135.126 12.9865 135.579 13.1998 135.979 13.5195C136.405 13.8128 136.619 14.2533 136.619 14.8398C136.619 15.6132 136.325 16.4136 135.738 17.2402C135.178 18.0401 134.499 18.7739 133.699 19.4404C132.926 20.0803 132.219 20.5599 131.579 20.8799C131.499 21.5198 131.446 22.1732 131.419 22.8398V24.7598C131.419 25.0798 131.432 25.48 131.459 25.96C131.512 26.44 131.632 26.8669 131.818 27.2402C132.032 27.6135 132.379 27.7997 132.858 27.7998C133.365 27.7998 133.859 27.5735 134.339 27.1201C134.845 26.6669 135.325 26.0935 135.778 25.4004C136.258 24.6804 136.699 23.9334 137.099 23.1602C137.499 22.3868 137.845 21.6533 138.139 20.96C138.432 20.2669 138.645 19.7337 138.778 19.3604C138.832 19.2271 138.899 19.1066 138.979 19C139.058 18.8677 139.177 18.8009 139.335 18.7998C139.384 18.2732 139.593 17.6866 139.963 17.04C140.416 16.2934 140.99 15.5732 141.684 14.8799C142.377 14.1601 143.083 13.5734 143.803 13.1201C144.523 12.6403 145.163 12.4005 145.723 12.4004C146.069 12.4004 146.403 12.4932 146.723 12.6797C147.069 12.8396 147.243 13.1198 147.243 13.5195C147.243 13.6262 147.216 13.7733 147.163 13.96C147.11 14.1466 147.016 14.2402 146.883 14.2402C146.696 14.2401 146.537 14.1465 146.403 13.96C146.297 13.7466 146.163 13.6396 146.003 13.6396C145.55 13.6397 145.003 13.8269 144.363 14.2002C143.75 14.5735 143.15 15.0531 142.563 15.6396C141.977 16.1996 141.483 16.7871 141.083 17.4004C140.71 18.0136 140.523 18.5601 140.523 19.04C140.523 19.36 140.71 19.6399 141.083 19.8799C141.456 20.1199 141.897 20.3205 142.403 20.4805C142.936 20.6404 143.456 20.8 143.963 20.96C144.47 21.0933 144.843 21.2404 145.083 21.4004C145.216 21.2671 145.443 21.053 145.763 20.7598C146.083 20.4665 146.443 20.1464 146.843 19.7998C147.243 19.4532 147.603 19.1599 147.923 18.9199C148.27 18.6799 148.51 18.5596 148.644 18.5596C148.75 18.5597 148.803 18.6134 148.803 18.7197C148.803 18.8531 148.67 19.0804 148.403 19.4004C148.163 19.6937 147.857 20.0137 147.483 20.3604L146.483 21.3604C146.163 21.6537 145.936 21.8667 145.803 22C146.043 22.4 146.163 22.8269 146.163 23.2803C146.163 23.7335 145.963 24.2935 145.563 24.96C145.163 25.6 144.656 26.2399 144.043 26.8799C143.456 27.5199 142.843 28.0538 142.203 28.4805C141.563 28.9069 141.017 29.12 140.563 29.1201C140.084 29.1201 139.843 28.8801 139.843 28.4004C139.843 27.9471 140.003 27.4399 140.323 26.8799C140.67 26.2933 141.084 25.7067 141.563 25.1201C142.043 24.507 142.523 23.947 143.003 23.4404L144.243 22.2002C143.87 22.0135 143.403 21.8531 142.843 21.7197C142.31 21.5598 141.763 21.3868 141.203 21.2002C140.67 20.9869 140.216 20.7204 139.843 20.4004C139.721 20.279 139.623 20.1436 139.544 19.9961C139.471 20.299 139.363 20.6471 139.219 21.04C138.925 21.8133 138.525 22.653 138.019 23.5596C137.539 24.4662 136.992 25.3335 136.379 26.1602C135.792 26.9868 135.192 27.6669 134.579 28.2002C133.966 28.7335 133.392 29 132.858 29C132.139 28.9999 131.579 28.6799 131.179 28.04C130.805 27.4 130.552 26.6264 130.419 25.7197C130.286 24.7865 130.219 23.92 130.219 23.1201V22.1201C130.245 21.8003 130.272 21.5336 130.299 21.3203H130.179C129.859 21.3203 129.699 21.2 129.699 20.96C129.753 20.8267 129.845 20.7196 129.979 20.6396C130.139 20.533 130.286 20.4671 130.419 20.4404C130.552 19.2671 130.805 18.0665 131.179 16.8398C131.552 15.6132 132.059 14.5062 132.699 13.5195V13.2803C132.699 13.0136 132.859 12.8531 133.179 12.7998C133.312 12.6665 133.446 12.5203 133.579 12.3604C133.739 12.1737 133.912 12.0801 134.099 12.0801ZM81.0469 4.67969C81.2335 4.67969 81.4208 4.74655 81.6074 4.87988C81.794 5.0132 81.8867 5.17372 81.8867 5.36035C81.8865 5.44098 81.8206 5.77455 81.6875 6.36035C81.5542 6.94696 81.3803 7.64055 81.167 8.44043C80.9804 9.21345 80.8074 9.94657 80.6475 10.6396C80.5141 11.333 80.4205 11.8134 80.3672 12.0801C81.5405 11.7334 82.6609 11.4536 83.7275 11.2402C84.8207 11.027 85.9672 10.9199 87.167 10.9199H87.7676C88.0608 10.9199 88.3409 10.9333 88.6074 10.96C88.9006 10.9866 89.0469 11.0401 89.0469 11.1201C88.7803 11.2267 88.4869 11.307 88.167 11.3604C87.8737 11.4137 87.5804 11.4538 87.2871 11.4805C86.0072 11.5871 84.794 11.8269 83.6475 12.2002C82.5275 12.5735 81.3804 12.9871 80.207 13.4404C80.0204 14.9603 79.8609 16.5069 79.7275 18.0801C79.5942 19.6266 79.5274 21.1598 79.5273 22.6797C79.5273 22.973 79.5407 23.3733 79.5674 23.8799C79.594 24.3599 79.6475 24.8537 79.7275 25.3604C79.8075 25.84 79.9405 26.2531 80.127 26.5996C80.3135 26.9461 80.5803 27.12 80.9268 27.1201C81.38 27.1201 81.8472 26.8669 82.3271 26.3604C82.8071 25.827 83.2876 25.187 83.7676 24.4404C84.2475 23.6672 84.6869 22.8934 85.0869 22.1201C85.4869 21.3469 85.8336 20.6934 86.127 20.1602C86.447 19.6268 86.6609 19.347 86.7676 19.3203V19.4404C86.7675 19.7653 86.6759 20.1946 86.5 20.7305C86.5357 20.6977 86.5745 20.6664 86.6191 20.6396C86.7791 20.533 86.9262 20.4671 87.0596 20.4404C87.1929 19.2671 87.446 18.0665 87.8193 16.8398C88.1927 15.6132 88.6999 14.5062 89.3398 13.5195V13.2803C89.3398 13.0136 89.4993 12.8531 89.8193 12.7998C89.9526 12.6665 90.0864 12.5203 90.2197 12.3604C90.3797 12.1737 90.5526 12.0801 90.7393 12.0801C90.9526 12.0801 91.1131 12.1737 91.2197 12.3604C91.3527 12.5202 91.3662 12.6935 91.2598 12.8799C91.7661 12.9865 92.2193 13.1998 92.6191 13.5195C93.0458 13.8128 93.2597 14.2533 93.2598 14.8398C93.2598 15.6132 92.9656 16.4136 92.3789 17.2402C91.819 18.0401 91.1397 18.7739 90.3398 19.4404C89.5666 20.0803 88.8596 20.5599 88.2197 20.8799C88.1397 21.5198 88.0862 22.1732 88.0596 22.8398V24.7598C88.0596 25.0798 88.0729 25.48 88.0996 25.96C88.1529 26.44 88.2723 26.8669 88.459 27.2402C88.6723 27.6135 89.0192 27.7997 89.499 27.7998C90.0057 27.7998 90.4995 27.5735 90.9795 27.1201C91.486 26.6669 91.9657 26.0935 92.4189 25.4004C92.8989 24.6804 93.3393 23.9334 93.7393 23.1602C94.1393 22.3868 94.486 21.6533 94.7793 20.96C95.0725 20.2669 95.2856 19.7337 95.4189 19.3604C95.4723 19.2271 95.5392 19.1066 95.6191 19C95.6991 18.8667 95.8195 18.7998 95.9795 18.7998C96.1927 18.7999 96.2998 18.9336 96.2998 19.2002C96.2998 19.6269 96.1527 20.2402 95.8594 21.04C95.5661 21.8133 95.1658 22.653 94.6592 23.5596C94.1792 24.4662 93.6329 25.3335 93.0195 26.1602C92.4329 26.9868 91.833 27.6669 91.2197 28.2002C90.6064 28.7335 90.0324 29 89.499 29C88.7792 28.9999 88.2193 28.6799 87.8193 28.04C87.446 27.4 87.1929 26.6264 87.0596 25.7197C86.9263 24.7865 86.8594 23.92 86.8594 23.1201V22.1201C86.886 21.8003 86.9128 21.5336 86.9395 21.3203H86.8193C86.578 21.3203 86.4275 21.2518 86.3682 21.1152C86.3676 21.1167 86.3677 21.1186 86.3672 21.1201C86.1005 21.8401 85.7404 22.6138 85.2871 23.4404C84.8606 24.2402 84.3808 25.0133 83.8477 25.7598C83.341 26.5064 82.8204 27.1196 82.2871 27.5996C81.7806 28.0794 81.3008 28.3201 80.8477 28.3203C80.261 28.3203 79.7939 28.1197 79.4473 27.7197C79.1007 27.2931 78.8341 26.7733 78.6475 26.1602C78.4875 25.5203 78.3805 24.8935 78.3271 24.2803C78.2738 23.6403 78.2471 23.1197 78.2471 22.7197C78.2471 21.2799 78.3006 19.8268 78.4072 18.3604C78.5406 16.8937 78.6743 15.44 78.8076 14C78.3544 14.1866 77.9139 14.3997 77.4873 14.6396C77.0874 14.8796 76.7138 15.1863 76.3672 15.5596C76.3139 15.6129 76.247 15.6664 76.167 15.7197C76.1137 15.7731 76.0334 15.7998 75.9268 15.7998C75.7402 15.7997 75.5537 15.7061 75.3672 15.5195C75.2073 15.333 75.127 15.1465 75.127 14.96C75.127 14.72 75.2874 14.4802 75.6074 14.2402C75.9274 13.9736 76.3143 13.7329 76.7676 13.5195C77.2473 13.2797 77.6871 13.0799 78.0869 12.9199C78.5134 12.76 78.8067 12.653 78.9668 12.5996C78.9935 12.3862 79.047 11.9865 79.127 11.4004C79.2336 10.7871 79.354 10.1069 79.4873 9.36035C79.6206 8.58711 79.7668 7.85342 79.9268 7.16016C80.1134 6.44031 80.3007 5.85368 80.4873 5.40039C80.6739 4.92066 80.8603 4.67996 81.0469 4.67969ZM166.059 12.4404C166.459 12.4404 166.753 12.6935 166.939 13.2002C167.126 13.7067 167.245 14.2534 167.299 14.8398C167.379 15.4265 167.419 15.8668 167.419 16.1602C167.419 16.3468 167.406 16.6669 167.379 17.1201C167.352 17.5467 167.285 17.947 167.179 18.3203C167.099 18.6933 166.939 18.8798 166.699 18.8799C166.486 18.8799 166.379 18.6401 166.379 18.1602C166.379 17.9468 166.392 17.7462 166.419 17.5596C166.446 17.3732 166.459 17.2267 166.459 17.1201C166.459 16.9868 166.446 16.6801 166.419 16.2002C166.392 15.6935 166.325 15.2131 166.219 14.7598C166.139 14.3069 166.019 14.0804 165.859 14.0801C165.699 14.0801 165.499 14.2397 165.259 14.5596C165.046 14.8528 164.819 15.2131 164.579 15.6396C164.366 16.0396 164.166 16.4399 163.979 16.8398C163.82 17.2129 163.713 17.4796 163.659 17.6396C163.259 18.6263 162.832 19.7467 162.379 21C161.952 22.2533 161.579 23.5199 161.259 24.7998C160.965 26.0531 160.819 27.227 160.819 28.3203C160.633 28.6934 160.339 28.8798 159.939 28.8799C159.753 28.8799 159.606 28.813 159.499 28.6797C159.393 28.5464 159.339 28.3867 159.339 28.2002C159.339 27.1869 159.379 26.1734 159.459 25.1602C159.566 24.1202 159.619 23.0934 159.619 22.0801C159.619 21.4134 159.592 20.5729 159.539 19.5596C159.512 18.5197 159.419 17.5061 159.259 16.5195C159.125 15.5065 158.886 14.7334 158.539 14.2002C158.512 14.1469 158.486 14.1067 158.459 14.0801C158.432 14.0267 158.419 13.9733 158.419 13.9199C158.419 13.76 158.499 13.6529 158.659 13.5996C158.819 13.5198 158.952 13.4806 159.059 13.4805C159.432 13.4805 159.726 13.6935 159.939 14.1201C160.153 14.5467 160.312 15.0933 160.419 15.7598C160.526 16.4264 160.592 17.1199 160.619 17.8398C160.672 18.5331 160.699 19.1732 160.699 19.7598V21.6797C160.726 21.9197 160.739 22.1738 160.739 22.4404C160.846 22.0671 161.032 21.4931 161.299 20.7197C161.565 19.9465 161.886 19.0933 162.259 18.1602C162.632 17.2003 163.032 16.2937 163.459 15.4404C163.912 14.5605 164.353 13.8403 164.779 13.2803C165.232 12.7205 165.659 12.4406 166.059 12.4404ZM27.9307 14C27.3707 14.96 26.9036 16.0937 26.5303 17.4004C26.157 18.7069 25.8771 20.0405 25.6904 21.4004C25.5305 22.7602 25.4502 24.0002 25.4502 25.1201C25.4502 25.3868 25.4769 25.8004 25.5303 26.3604C25.6103 26.9202 25.7574 27.44 25.9707 27.9199C26.184 28.3732 26.4773 28.5996 26.8506 28.5996C27.2506 28.5996 27.6642 28.3331 28.0908 27.7998C28.5174 27.2398 28.9177 26.573 29.291 25.7998C29.6909 24.9999 30.0244 24.2394 30.291 23.5195C30.5576 22.7998 30.7306 22.2665 30.8105 21.9199C29.7973 21.2266 29.0369 20.2934 28.5303 19.1201C28.0503 17.9468 27.8105 16.7462 27.8105 15.5195C27.8106 14.9864 27.8507 14.4799 27.9307 14ZM196.624 11.1201C197.077 11.1201 197.411 11.2932 197.624 11.6396C197.837 11.9863 197.971 12.4266 198.024 12.96C198.104 13.4666 198.145 13.9738 198.145 14.4805V15.6797C198.145 15.813 198.051 15.9601 197.864 16.1201C197.704 16.2535 197.557 16.3203 197.424 16.3203C197.157 16.3202 196.984 16.1999 196.904 15.96C196.824 15.72 196.784 15.4534 196.784 15.1602C196.784 14.867 196.798 14.6003 196.824 14.3604C196.851 14.0937 196.864 13.8931 196.864 13.7598C196.864 13.6264 196.837 13.4132 196.784 13.1201C196.731 12.8001 196.624 12.6396 196.464 12.6396C196.037 12.7997 195.637 13.2266 195.264 13.9199C194.89 14.5866 194.544 15.387 194.224 16.3203C193.93 17.2535 193.677 18.2137 193.464 19.2002C193.277 20.1867 193.118 21.0934 192.984 21.9199C192.878 22.7197 192.824 23.3197 192.824 23.7197C192.824 24.0931 192.864 24.5735 192.944 25.1602C193.051 25.72 193.237 26.2265 193.504 26.6797C193.797 27.133 194.197 27.3604 194.704 27.3604C195.264 27.3603 195.824 27.1063 196.384 26.5996C196.944 26.0663 197.478 25.413 197.984 24.6396C198.518 23.8666 198.997 23.0934 199.424 22.3203C199.85 21.5205 200.197 20.867 200.464 20.3604C200.757 19.827 200.958 19.5596 201.064 19.5596C201.197 19.5597 201.277 19.6268 201.304 19.7598C201.33 19.8931 201.33 20.0001 201.304 20.0801L201.264 20.2402C201.104 20.8269 200.81 21.574 200.384 22.4805C199.957 23.387 199.437 24.3071 198.824 25.2402C198.211 26.1467 197.544 26.9196 196.824 27.5596C196.131 28.1729 195.437 28.4804 194.744 28.4805C193.944 28.4805 193.318 28.213 192.864 27.6797C192.411 27.1197 192.091 26.4664 191.904 25.7197C191.718 24.9465 191.624 24.2529 191.624 23.6396C191.624 23.1863 191.691 22.4793 191.824 21.5195C191.958 20.5331 192.157 19.4533 192.424 18.2803C192.717 17.1069 193.064 15.9732 193.464 14.8799C193.864 13.7866 194.331 12.8935 194.864 12.2002C195.398 11.4802 195.984 11.1201 196.624 11.1201ZM174.179 13.7598C173.699 13.7599 173.232 14.04 172.779 14.5996C172.326 15.1596 171.886 15.8398 171.459 16.6396C171.059 17.413 170.712 18.1733 170.419 18.9199C170.152 19.6663 169.966 20.2263 169.859 20.5996C169.326 22.4396 169.059 24.3336 169.059 26.2803V27C169.085 27.3466 169.139 27.68 169.219 28C169.325 28.2933 169.473 28.4404 169.659 28.4404C170.006 28.4404 170.393 28.1203 170.819 27.4805C171.246 26.8405 171.685 26.0266 172.139 25.04C172.619 24.0267 173.072 22.9465 173.499 21.7998C173.926 20.6532 174.313 19.5729 174.659 18.5596C175.032 17.5198 175.339 16.6666 175.579 16C175.819 15.3075 175.979 14.9339 176.059 14.8799L175.819 14.9199C175.633 14.9199 175.486 14.8263 175.379 14.6396C175.272 14.4265 175.139 14.2265 174.979 14.04C174.819 13.8534 174.552 13.7598 174.179 13.7598ZM207.265 13.7598C206.785 13.7599 206.318 14.04 205.865 14.5996C205.412 15.1596 204.972 15.8398 204.545 16.6396C204.145 17.413 203.798 18.1733 203.505 18.9199C203.238 19.6663 203.052 20.2263 202.945 20.5996C202.412 22.4396 202.145 24.3336 202.145 26.2803V27C202.171 27.3466 202.225 27.68 202.305 28C202.411 28.2933 202.558 28.4404 202.745 28.4404C203.092 28.4404 203.479 28.1203 203.905 27.4805C204.332 26.8405 204.771 26.0266 205.225 25.04C205.705 24.0267 206.158 22.9465 206.585 21.7998C207.012 20.6532 207.398 19.5729 207.745 18.5596C208.118 17.5198 208.425 16.6666 208.665 16C208.905 15.3075 209.064 14.9339 209.145 14.8799L208.905 14.9199C208.719 14.9199 208.572 14.8263 208.465 14.6396C208.358 14.4265 208.225 14.2265 208.065 14.04C207.905 13.8534 207.638 13.7598 207.265 13.7598ZM240.233 13.7598C239.754 13.7599 239.287 14.04 238.834 14.5996C238.381 15.1596 237.94 15.8398 237.514 16.6396C237.114 17.413 236.767 18.1733 236.474 18.9199C236.207 19.6663 236.021 20.2263 235.914 20.5996C235.381 22.4396 235.113 24.3336 235.113 26.2803V27C235.14 27.3466 235.193 27.68 235.273 28C235.38 28.2933 235.527 28.4404 235.714 28.4404C236.06 28.4404 236.447 28.1203 236.874 27.4805C237.301 26.8405 237.74 26.0266 238.193 25.04C238.673 24.0267 239.127 22.9465 239.554 21.7998C239.98 20.6532 240.367 19.5729 240.714 18.5596C241.087 17.5198 241.394 16.6666 241.634 16C241.874 15.3075 242.033 14.9339 242.113 14.8799L241.874 14.9199C241.687 14.9199 241.54 14.8263 241.434 14.6396C241.327 14.4265 241.194 14.2265 241.034 14.04C240.874 13.8534 240.607 13.7598 240.233 13.7598ZM152.727 4.67969C152.913 4.67969 153.1 4.74655 153.287 4.87988C153.474 5.0132 153.566 5.17372 153.566 5.36035C153.566 5.44098 153.5 5.77455 153.367 6.36035C153.234 6.94696 153.06 7.64055 152.847 8.44043C152.66 9.21345 152.487 9.94657 152.327 10.6396C152.194 11.333 152.1 11.8134 152.047 12.0801C153.22 11.7334 154.341 11.4536 155.407 11.2402C156.5 11.027 157.647 10.9199 158.847 10.9199H159.447C159.74 10.9199 160.021 10.9333 160.287 10.96C160.58 10.9866 160.727 11.0401 160.727 11.1201C160.46 11.2267 160.167 11.307 159.847 11.3604C159.553 11.4137 159.26 11.4538 158.967 11.4805C157.687 11.5871 156.474 11.8269 155.327 12.2002C154.207 12.5735 153.06 12.9871 151.887 13.4404C151.7 14.9603 151.541 16.5069 151.407 18.0801C151.274 19.6266 151.207 21.1598 151.207 22.6797C151.207 22.973 151.22 23.3733 151.247 23.8799C151.274 24.3599 151.327 24.8537 151.407 25.3604C151.487 25.84 151.62 26.2531 151.807 26.5996C151.993 26.9461 152.26 27.12 152.606 27.1201C153.06 27.1201 153.527 26.8669 154.007 26.3604C154.487 25.827 154.967 25.187 155.447 24.4404C155.927 23.6672 156.367 22.8934 156.767 22.1201C157.167 21.3469 157.513 20.6934 157.807 20.1602C158.127 19.6268 158.341 19.347 158.447 19.3203V19.4404C158.447 19.8404 158.313 20.4004 158.047 21.1201C157.78 21.8401 157.42 22.6138 156.967 23.4404C156.54 24.2402 156.06 25.0133 155.527 25.7598C155.021 26.5064 154.5 27.1196 153.967 27.5996C153.46 28.0794 152.981 28.3201 152.527 28.3203C151.941 28.3203 151.474 28.1197 151.127 27.7197C150.78 27.2931 150.514 26.7733 150.327 26.1602C150.167 25.5203 150.06 24.8935 150.007 24.2803C149.954 23.6403 149.927 23.1197 149.927 22.7197C149.927 21.2799 149.98 19.8268 150.087 18.3604C150.22 16.8937 150.354 15.44 150.487 14C150.034 14.1866 149.594 14.3997 149.167 14.6396C148.767 14.8796 148.393 15.1863 148.047 15.5596C147.994 15.6129 147.927 15.6664 147.847 15.7197C147.793 15.7731 147.713 15.7998 147.606 15.7998C147.42 15.7997 147.233 15.7061 147.047 15.5195C146.887 15.333 146.807 15.1465 146.807 14.96C146.807 14.72 146.967 14.4802 147.287 14.2402C147.607 13.9736 147.994 13.7329 148.447 13.5195C148.927 13.2797 149.367 13.0799 149.767 12.9199C150.193 12.76 150.486 12.653 150.646 12.5996C150.673 12.3862 150.727 11.9865 150.807 11.4004C150.913 10.7871 151.034 10.1069 151.167 9.36035C151.3 8.58711 151.446 7.85342 151.606 7.16016C151.793 6.44031 151.98 5.85368 152.167 5.40039C152.354 4.92066 152.54 4.67996 152.727 4.67969ZM52.1709 23.7197C51.8509 24.0664 51.5042 24.4532 51.1309 24.8799C50.7842 25.2799 50.4776 25.6667 50.2109 26.04C49.971 26.3866 49.8507 26.6532 49.8506 26.8398C49.8506 26.9998 49.9309 27.08 50.0908 27.0801C50.3308 27.0801 50.6107 26.9464 50.9307 26.6797C51.2773 26.413 51.6107 26.0797 51.9307 25.6797C52.2506 25.2797 52.5171 24.8928 52.7305 24.5195C52.9704 24.1196 53.0908 23.7995 53.0908 23.5596C53.0908 23.2931 53.0373 23.0932 52.9307 22.96L52.1709 23.7197ZM144.163 23.7197C143.843 24.0664 143.496 24.4532 143.123 24.8799C142.776 25.2799 142.47 25.6667 142.203 26.04C141.963 26.3866 141.843 26.6532 141.843 26.8398C141.843 26.9998 141.923 27.08 142.083 27.0801C142.323 27.0801 142.603 26.9464 142.923 26.6797C143.27 26.413 143.603 26.0797 143.923 25.6797C144.243 25.2797 144.509 24.8928 144.723 24.5195C144.963 24.1196 145.083 23.7995 145.083 23.5596C145.083 23.2931 145.029 23.0932 144.923 22.96L144.163 23.7197ZM29.4102 12.9199C29.277 12.9202 29.1707 13.0272 29.0908 13.2402C29.0375 13.4268 28.9974 13.64 28.9707 13.8799V14.3604C28.9707 15.4268 29.1303 16.5467 29.4502 17.7197C29.7969 18.8664 30.3442 19.853 31.0908 20.6797C31.2508 19.7465 31.3311 18.7997 31.3311 17.8398C31.331 17.6265 31.2775 17.2663 31.1709 16.7598C31.0909 16.2265 30.9571 15.6667 30.7705 15.0801C30.6105 14.4934 30.4109 13.9862 30.1709 13.5596C29.9309 13.133 29.6768 12.9199 29.4102 12.9199ZM90.4189 14C89.9124 14.8265 89.4863 15.7333 89.1396 16.7197C88.8197 17.7063 88.5789 18.6797 88.4189 19.6396C88.9256 19.3197 89.4328 18.9204 89.9395 18.4404C90.4461 17.9604 90.8731 17.4131 91.2197 16.7998C91.5663 16.1866 91.7393 15.5732 91.7393 14.96C91.7392 14.6401 91.5795 14.4136 91.2598 14.2803C90.9398 14.1203 90.6589 14.0267 90.4189 14ZM133.778 14C133.272 14.8265 132.846 15.7333 132.499 16.7197C132.179 17.7063 131.938 18.6797 131.778 19.6396C132.285 19.3197 132.792 18.9204 133.299 18.4404C133.805 17.9604 134.232 17.4131 134.579 16.7998C134.926 16.1866 135.099 15.5732 135.099 14.96C135.099 14.6401 134.939 14.4136 134.619 14.2803C134.299 14.1203 134.018 14.0267 133.778 14ZM75.3711 2.28027C75.3444 2.38673 75.2773 2.46622 75.1709 2.51953C75.091 2.5728 75.024 2.62642 74.9707 2.67969C74.6507 3.02632 74.2906 3.69317 73.8906 4.67969C73.4906 5.66635 73.0904 6.82682 72.6904 8.16016C72.3171 9.49343 71.957 10.8403 71.6104 12.2002C71.2637 13.5601 70.9705 14.8134 70.7305 15.96C70.4905 17.08 70.3444 17.9205 70.291 18.4805C70.9043 18.3204 71.4909 17.8132 72.0508 16.96C72.6374 16.1066 73.1704 15.0665 73.6504 13.8398C74.1304 12.6132 74.544 11.36 74.8906 10.0801C75.264 8.77341 75.5438 7.5862 75.7305 6.51953C75.9437 5.42646 76.0508 4.61334 76.0508 4.08008C76.0508 3.81343 76.024 3.48004 75.9707 3.08008C75.9174 2.65362 75.7175 2.38704 75.3711 2.28027Z" fill="black"/>
</svg>
