<svg width="33" height="20" viewBox="0 0 33 20" fill="none" xmlns="http://www.w3.org/2000/svg">
<path d="M0 0V20H33V0H0ZM4.71429 2.35294H28.2857C28.2857 3.65294 29.3405 4.70588 30.6429 4.70588V15.2941C29.3405 15.2941 28.2857 16.3471 28.2857 17.6471H4.71429C4.71429 16.3471 3.65946 15.2941 2.35714 15.2941V4.70588C3.65946 4.70588 4.71429 3.65294 4.71429 2.35294ZM16.5 4.70588C13.8942 4.70588 11.7857 7.07765 11.7857 10C11.7857 12.9224 13.8942 15.2941 16.5 15.2941C19.1058 15.2941 21.2143 12.9224 21.2143 10C21.2143 7.07765 19.1058 4.70588 16.5 4.70588ZM16.5 7.05882C17.7988 7.05882 18.8571 8.37765 18.8571 10C18.8571 11.6224 17.7988 12.9412 16.5 12.9412C15.2012 12.9412 14.1429 11.6224 14.1429 10C14.1429 8.37765 15.2012 7.05882 16.5 7.05882ZM7.66071 8.23529C6.68486 8.23529 5.89286 9.02588 5.89286 10C5.89286 10.9741 6.68486 11.7647 7.66071 11.7647C8.63657 11.7647 9.42857 10.9741 9.42857 10C9.42857 9.02588 8.63657 8.23529 7.66071 8.23529ZM25.3393 8.23529C24.3634 8.23529 23.5714 9.02588 23.5714 10C23.5714 10.9741 24.3634 11.7647 25.3393 11.7647C26.3151 11.7647 27.1071 10.9741 27.1071 10C27.1071 9.02588 26.3151 8.23529 25.3393 8.23529Z" fill="#009EE3"/>
</svg>
