<svg width="45" height="48" viewBox="0 0 45 48" fill="none" xmlns="http://www.w3.org/2000/svg">
<rect x="16.665" y="5.59937" width="5.73977" height="24.2983" rx="2.86988" transform="rotate(-30 16.665 5.59937)" fill="white"/>
<rect x="2.87012" y="19.9708" width="5.73977" height="24.8723" rx="2.86988" transform="rotate(-120 2.87012 19.9708)" fill="white"/>
<rect x="12.2449" y="36.2086" width="5.73977" height="24.8723" rx="2.86988" transform="rotate(-120 12.2449 36.2086)" fill="white"/>
<rect x="10.7107" y="22.0717" width="5.73977" height="11.4795" rx="2.86988" transform="rotate(150 10.7107 22.0717)" fill="white"/>
<rect x="11.4041" y="17.9156" width="8.03567" height="7.84435" rx="3.92217" transform="rotate(-30 11.4041 17.9156)" fill="white"/>
<rect x="16.3328" y="42.9064" width="4.78314" height="4.97446" rx="2.39157" transform="rotate(-30 16.3328 42.9064)" fill="white"/>
<rect x="21.635" y="39.8452" width="4.78314" height="4.97446" rx="2.39157" transform="rotate(-30 21.635 39.8452)" fill="white"/>
<rect x="13.3672" y="37.7699" width="10.9056" height="4.78314" rx="2.39157" transform="rotate(-30 13.3672 37.7699)" fill="white"/>
<rect x="18.6694" y="34.7087" width="4.78314" height="4.78314" rx="2.39157" transform="rotate(-30 18.6694 34.7087)" fill="white"/>
<rect x="32.2393" y="33.7227" width="4.78314" height="4.97446" rx="2.39157" transform="rotate(-30 32.2393 33.7227)" fill="white"/>
<rect x="37.3757" y="30.7572" width="4.97446" height="4.97446" rx="2.48723" transform="rotate(-30 37.3757 30.7572)" fill="white"/>
<rect x="29.2739" y="28.5863" width="4.78314" height="10.9056" rx="2.39157" transform="rotate(-30 29.2739 28.5863)" fill="white"/>
<rect x="23.9717" y="31.6475" width="4.97446" height="4.78314" rx="2.39157" transform="rotate(-30 23.9717 31.6475)" fill="white"/>
</svg>
