<svg width="28" height="31" viewBox="0 0 28 31" fill="none" xmlns="http://www.w3.org/2000/svg">
<path d="M0 4.84375C0 3.23926 1.34375 1.9375 3 1.9375H9C10.6562 1.9375 12 3.23926 12 4.84375V10.6562C12 12.2607 10.6562 13.5625 9 13.5625H3C1.34375 13.5625 0 12.2607 0 10.6562V4.84375ZM4 5.8125V9.6875H8V5.8125H4ZM0 20.3438C0 18.7393 1.34375 17.4375 3 17.4375H9C10.6562 17.4375 12 18.7393 12 20.3438V26.1562C12 27.7607 10.6562 29.0625 9 29.0625H3C1.34375 29.0625 0 27.7607 0 26.1562V20.3438ZM4 21.3125V25.1875H8V21.3125H4ZM19 1.9375H25C26.6562 1.9375 28 3.23926 28 4.84375V10.6562C28 12.2607 26.6562 13.5625 25 13.5625H19C17.3438 13.5625 16 12.2607 16 10.6562V4.84375C16 3.23926 17.3438 1.9375 19 1.9375ZM24 5.8125H20V9.6875H24V5.8125ZM16 18.4062C16 17.8734 16.45 17.4375 17 17.4375H21C21.55 17.4375 22 17.8734 22 18.4062C22 18.9391 22.45 19.375 23 19.375H25C25.55 19.375 26 18.9391 26 18.4062C26 17.8734 26.45 17.4375 27 17.4375C27.55 17.4375 28 17.8734 28 18.4062V24.2188C28 24.7516 27.55 25.1875 27 25.1875H23C22.45 25.1875 22 24.7516 22 24.2188C22 23.6859 21.55 23.25 21 23.25C20.45 23.25 20 23.6859 20 24.2188V28.0938C20 28.6266 19.55 29.0625 19 29.0625H17C16.45 29.0625 16 28.6266 16 28.0938V18.4062ZM23 29.0625C22.7348 29.0625 22.4804 28.9604 22.2929 28.7788C22.1054 28.5971 22 28.3507 22 28.0938C22 27.8368 22.1054 27.5904 22.2929 27.4087C22.4804 27.2271 22.7348 27.125 23 27.125C23.2652 27.125 23.5196 27.2271 23.7071 27.4087C23.8946 27.5904 24 27.8368 24 28.0938C24 28.3507 23.8946 28.5971 23.7071 28.7788C23.5196 28.9604 23.2652 29.0625 23 29.0625ZM27 29.0625C26.7348 29.0625 26.4804 28.9604 26.2929 28.7788C26.1054 28.5971 26 28.3507 26 28.0938C26 27.8368 26.1054 27.5904 26.2929 27.4087C26.4804 27.2271 26.7348 27.125 27 27.125C27.2652 27.125 27.5196 27.2271 27.7071 27.4087C27.8946 27.5904 28 27.8368 28 28.0938C28 28.3507 27.8946 28.5971 27.7071 28.7788C27.5196 28.9604 27.2652 29.0625 27 29.0625Z" fill="white"/>
</svg>
