<svg width="29" height="33" viewBox="0 0 29 33" fill="none" xmlns="http://www.w3.org/2000/svg">
<path d="M14.5 16.5C16.6975 16.5 18.805 15.6308 20.3589 14.0836C21.9128 12.5365 22.7857 10.438 22.7857 8.25C22.7857 6.06196 21.9128 3.96354 20.3589 2.41637C18.805 0.869194 16.6975 0 14.5 0C12.3025 0 10.195 0.869194 8.64111 2.41637C7.08724 3.96354 6.21429 6.06196 6.21429 8.25C6.21429 10.438 7.08724 12.5365 8.64111 14.0836C10.195 15.6308 12.3025 16.5 14.5 16.5ZM11.5417 19.5938C5.16563 19.5938 0 24.7371 0 31.0857C0 32.1428 0.860938 33 1.92254 33H27.0775C28.1391 33 29 32.1428 29 31.0857C29 24.7371 23.8344 19.5938 17.4583 19.5938H11.5417Z" fill="white"/>
</svg>
