<svg width="27" height="30" viewBox="0 0 27 30" fill="none" xmlns="http://www.w3.org/2000/svg">
<path d="M13.5 0C8.29512 0 4.05 4.288 4.05 9.54545C4.05 12.832 5.71113 15.7511 8.22656 17.4716C3.41191 19.5597 0 24.3857 0 30H2.7C2.7 23.9595 7.51992 19.0909 13.5 19.0909C19.4801 19.0909 24.3 23.9595 24.3 30H27C27 24.3857 23.5881 19.5597 18.7734 17.4716C21.2889 15.7511 22.95 12.832 22.95 9.54545C22.95 4.288 18.7049 0 13.5 0ZM13.5 2.72727C17.2441 2.72727 20.25 5.7635 20.25 9.54545C20.25 13.3274 17.2441 16.3636 13.5 16.3636C9.75586 16.3636 6.75 13.3274 6.75 9.54545C6.75 5.7635 9.75586 2.72727 13.5 2.72727Z" fill="#009EE3"/>
</svg>
